<?xml version="1.0" encoding="UTF-8" standalone="no"?>
<!DOCTYPE svg PUBLIC "-//W3C//DTD SVG 1.1//EN" "http://www.w3.org/Graphics/SVG/1.1/DTD/svg11.dtd">
<svg width="100%" height="100%" viewBox="0 0 700 617" version="1.1" xmlns="http://www.w3.org/2000/svg" xmlns:xlink="http://www.w3.org/1999/xlink" xml:space="preserve" xmlns:serif="http://www.serif.com/" style="fill-rule:evenodd;clip-rule:evenodd;stroke-linejoin:round;stroke-miterlimit:2;">
    <g transform="matrix(1,0,0,1,-0.000126729,0.000250652)">
        <g transform="matrix(4.62963,0,0,4.62964,95.8723,93.9503)">
            <clipPath id="_clip1">
                <path d="M112.326,28.895L112.326,84.741C112.326,100.153 99.814,112.665 84.403,112.665L25.122,112.665C9.71,112.665 -2.802,100.153 -2.802,84.741L-2.802,28.895C-2.802,13.484 9.71,0.972 25.122,0.972L84.403,0.972C99.814,0.972 112.326,13.484 112.326,28.895Z"/>
            </clipPath>
            <g clip-path="url(#_clip1)">
                <g transform="matrix(0.525,0,0,0.525,-20.7084,-38.3076)">
                    <g>
                        <path d="M288,262.688C288,276.695 276.695,288 262.688,288L25.313,288C11.138,288 0,276.356 0,262.688C0,251.719 7.086,231.974 16.875,224.044L16.875,68.063L271.125,68.063L271.125,224.044C280.914,231.974 288,251.719 288,262.688Z" style="fill:rgb(255,155,189);fill-rule:nonzero;"/>
                        <path d="M288,262.688C288,276.695 276.695,288 262.688,288L144,288L144,68.063L271.125,68.063L271.125,224.044C280.914,231.974 288,251.719 288,262.688Z" style="fill:rgb(158,87,157);fill-rule:nonzero;"/>
                        <g>
                            <path d="M144,203.625L219.938,203.625L219.938,220.5L144,220.5L144,203.625ZM144,237.375L219.938,237.375L219.938,254.25L144,254.25L144,237.375ZM25.313,34.313C11.333,34.313 0,45.646 0,59.625L0,262.688C0,248.68 11.305,237.375 25.313,237.375L33.75,237.375L33.75,34.313L25.313,34.313Z" style="fill-rule:nonzero;"/>
                        </g>
                        <path d="M262.688,49.947C276.667,49.947 288,56.343 288,70.322L288,265.408C286.743,257.03 276.695,253.832 262.688,253.832L254.25,253.832L254.25,49.947L262.688,49.947Z" style="fill:rgb(87,75,144);fill-rule:nonzero;"/>
                    </g>
                    <g transform="matrix(1,0,0,1,-24.6857,0)">
                        <rect x="68.063" y="101.813" width="84.375" height="84.375" style="fill:rgb(74,37,248);"/>
                        <rect x="84.938" y="118.688" width="50.625" height="50.625" style="fill:rgb(252,133,174);"/>
                        <path d="M149.965,116.215L138.035,104.285L110.25,132.069L82.465,104.285L70.535,116.215L98.319,144L70.535,171.785L82.465,183.715L110.25,155.931L138.035,183.715L149.965,171.785L122.181,144L149.965,116.215Z" style="fill:rgb(74,37,248);fill-rule:nonzero;"/>
                        <path d="M68.063,203.625L219.938,203.625L219.938,220.5L68.063,220.5L68.063,203.625ZM68.063,237.375L219.938,237.375L219.938,254.25L68.063,254.25L68.063,237.375Z" style="fill:rgb(74,37,248);fill-rule:nonzero;"/>
                    </g>
                </g>
                <circle cx="55" cy="59" r="50" style="fill:url(#_Radial2);"/>
                <path d="M91,64.94L91,85L19,85L19,64.94C18.999,61.285 21.002,57.911 24.21,56.16L41,47L69,47L85.79,56.16C88.998,57.911 91.001,61.285 91,64.94Z" style="fill:rgb(78,106,255);fill-rule:nonzero;"/>
                <path d="M79,33L78.61,34.75C76.3,45.156 69.967,54.237 61,60L49,60C40.035,54.235 33.702,45.155 31.39,34.75L31,33L40,25L70,25L79,33Z" style="fill:rgb(50,63,212);fill-rule:nonzero;"/>
                <path d="M55,57C51.16,57 48,53.84 48,50L48,47L62,47L62,50C62,53.84 58.84,57 55,57Z" style="fill:rgb(127,150,209);fill-rule:nonzero;"/>
                <g transform="matrix(1,0,0,1,5.53636,18.9158)">
                    <circle cx="9" cy="4" r="3" style="fill:rgb(0,201,159);"/>
                </g>
                <g transform="matrix(1,0,0,1,-10.9752,14.9158)">
                    <circle cx="106" cy="8" r="3" style="fill:rgb(255,161,0);"/>
                </g>
                <g transform="matrix(1,0,0,1,-3.97524,-11.1009)">
                    <circle cx="99" cy="106" r="3" style="fill:rgb(0,201,159);"/>
                </g>
                <g transform="matrix(1,0,0,1,10.5364,-5.10094)">
                    <circle cx="4" cy="100" r="3" style="fill:rgb(255,77,105);"/>
                </g>
                <path d="M97.71,85C95.961,87.862 93.931,90.542 91.65,93L18.35,93C16.069,90.542 14.039,87.862 12.29,85L97.71,85Z" style="fill:rgb(165,188,237);fill-rule:nonzero;"/>
                <path d="M91.65,93C82.193,103.19 68.902,108.989 55,108.989C41.098,108.989 27.807,103.19 18.35,93L91.65,93Z" style="fill:rgb(127,150,209);fill-rule:nonzero;"/>
                <path d="M77.013,55L32.987,55C31.89,55 30.987,55.903 30.987,57C30.987,57.077 30.991,57.154 31,57.23L34,83.23C34.117,84.239 34.984,85.007 36,85L74,85C75.016,85.007 75.883,84.239 76,83.23L79,57.23C79.009,57.154 79.013,57.077 79.013,57C79.013,55.903 78.11,55 77.013,55Z" style="fill:rgb(143,162,255);fill-rule:nonzero;"/>
                <path d="M55,50C47.32,50 41,43.68 41,36L41,26L69,26L69,36C69,43.68 62.68,50 55,50Z" style="fill:rgb(165,188,237);fill-rule:nonzero;"/>
                <path d="M41,36L40,36C37.257,36 35,33.743 35,31C35,28.257 37.257,26 40,26L41,26L41,36ZM69,36L70,36C72.743,36 75,33.743 75,31C75,28.257 72.743,26 70,26L69,26L69,36ZM54.17,46L53,46C52.451,46 52,45.549 52,45C52,44.451 52.451,44 53,44L54.17,44C55.715,43.999 57.198,43.383 58.29,42.29C58.478,42.102 58.734,41.996 59,41.996C59.551,41.996 60.004,42.449 60.004,43C60.004,43.266 59.898,43.522 59.71,43.71C58.235,45.168 56.244,45.991 54.17,46Z" style="fill:rgb(127,150,209);fill-rule:nonzero;"/>
                <path d="M79,33C63.902,25.455 46.098,25.455 31,33C30.9,33 40.58,13.84 40.53,13.94C43.272,8.475 48.886,5.012 55,5.012C61.114,5.012 66.728,8.475 69.47,13.94L79,33Z" style="fill:rgb(78,106,255);fill-rule:nonzero;"/>
                <circle cx="55" cy="70" r="4" style="fill:white;"/>
            </g>
        </g>
    </g>
    <defs>
        <radialGradient id="_Radial2" cx="0" cy="0" r="1" gradientUnits="userSpaceOnUse" gradientTransform="matrix(50,0,0,50,55,59)"><stop offset="0" style="stop-color:rgb(39,14,66);stop-opacity:1"/><stop offset="1" style="stop-color:rgb(231,239,255);stop-opacity:0.28"/></radialGradient>
    </defs>
</svg>
