<svg width="1484" height="308" viewBox="0 0 1484 308" fill="none" xmlns="http://www.w3.org/2000/svg">
<path d="M285 158.469C282.188 158.469 280.313 160.344 280.313 163.156C280.313 237.687 219.844 298.625 144.844 298.625C70.3126 298.625 9.37501 237.687 9.37501 163.156C9.37501 88.156 70.3126 27.6873 144.844 27.6873C147.656 27.6873 149.531 25.8123 149.531 22.9998C149.531 20.1873 147.656 18.3123 144.844 18.3123C65.1563 18.3123 0 82.9998 0 163.156C0 242.844 65.1563 308 144.844 308C224.531 308 289.688 242.844 289.688 163.156C289.688 160.344 287.813 158.469 285 158.469Z" fill="#F8FCFE"/>
<path d="M36.0935 163.156C36.0935 103.156 84.8436 54.4064 144.844 54.4064C147.656 54.4064 149.531 52.5314 149.531 49.7189C149.531 46.9064 147.656 45.0314 144.844 45.0314C79.6873 45.0314 26.7185 98.0002 26.7185 163.156C26.7185 228.313 79.6873 281.282 144.844 281.282C210 281.282 262.969 228.313 262.969 163.156C262.969 160.344 261.094 158.469 258.281 158.469C255.469 158.469 253.594 160.344 253.594 163.156C253.594 223.156 204.844 271.907 144.844 271.907C84.8436 271.907 36.0935 223.156 36.0935 163.156Z" fill="#F8FCFE"/>
<path d="M227.375 163.156C227.375 161.864 227.804 160.825 228.518 160.111C229.232 159.397 230.27 158.969 231.563 158.969C233.663 158.969 235.75 160.652 235.75 163.156C235.75 213.503 194.726 254.063 144.844 254.063C94.4967 254.063 53.9376 213.038 53.9376 163.156C53.9376 112.809 94.9621 72.2499 144.844 72.2499C146.137 72.2499 147.175 72.6786 147.889 73.3925C148.603 74.1064 149.031 75.1448 149.031 76.4374C149.031 77.73 148.603 78.7683 147.889 79.4823C147.175 80.1962 146.137 80.6249 144.844 80.6249C99.0972 80.6249 62.3126 117.882 62.3126 163.156C62.3126 208.903 99.5696 245.688 144.844 245.688C190.591 245.688 227.375 208.43 227.375 163.156Z" fill="#F8FCFE" stroke="#FFD0D0"/>
<path d="M89.9999 163.156C89.9999 132.688 114.844 108.313 144.844 108.313C147.656 108.313 149.531 106.438 149.531 103.625C149.531 100.813 147.656 98.9375 144.844 98.9375C109.219 98.9375 80.6249 128 80.6249 163.156C80.6249 198.781 109.687 227.375 144.844 227.375C180.469 227.375 209.062 198.313 209.062 163.156C209.062 160.344 207.187 158.469 204.375 158.469C201.562 158.469 199.687 160.344 199.687 163.156C199.687 193.625 174.844 218 144.844 218C114.844 218 89.9999 193.625 89.9999 163.156Z" fill="#F8FCFE"/>
<path d="M438.775 187.68L407.359 270H385.519L354.775 187.68H369.895L395.095 258.576H398.455L423.655 187.68H438.775ZM557.983 270H499.183V211.2L510.943 199.44H499.183V187.68H557.983V199.44H512.623V233.04L522.703 222.96H557.983V234.72H512.623V258.24H557.983V270ZM694.063 269.832H670.543L638.623 200.112H631.903L636.943 208.512V269.832H623.503V187.512H647.191L678.943 257.232H685.663L680.623 248.832V187.512H694.063V269.832ZM812.438 199.44H788.078V270H774.638V199.44H750.278V187.68H812.438V199.44ZM939.258 270H925.818V259.92L915.738 270H880.458C877.21 270 874.41 268.88 872.058 266.64C869.818 264.288 868.698 261.488 868.698 258.24V187.68H882.138V258.24H925.818V187.68H939.258V270ZM1081.99 270H1064.86L1029.91 234.72H1066.87V199.44H1023.19V270H1009.75V211.032L1021.51 199.44H1009.75V187.68H1068.55C1071.69 187.68 1074.43 188.856 1076.78 191.208C1079.14 193.56 1080.31 196.304 1080.31 199.44V231.36C1080.31 240.32 1076.39 244.8 1068.55 244.8H1058.47V246.648L1081.99 270ZM1205.51 270H1146.71V211.2L1158.47 199.44H1146.71V187.68H1205.51V199.44H1160.15V233.04L1170.23 222.96H1205.51V234.72H1160.15V258.24H1205.51V270ZM1326.47 258.24C1326.47 261.488 1325.29 264.288 1322.94 266.64C1320.7 268.88 1317.95 270 1314.71 270H1267.67V258.24H1313.03V234.72H1279.43C1276.18 234.72 1273.38 233.6 1271.03 231.36C1268.79 229.008 1267.67 226.208 1267.67 222.96V199.44C1267.67 196.192 1268.79 193.448 1271.03 191.208C1273.38 188.856 1276.18 187.68 1279.43 187.68H1326.47V199.44H1281.11V222.96H1314.71C1317.95 222.96 1320.7 224.136 1322.94 226.488C1325.29 228.728 1326.47 231.472 1326.47 234.72V258.24Z" fill="white"/>
<path d="M295.313 17.375H204.844C202.031 17.375 200.156 15.5 200.156 12.6875C200.156 9.875 202.031 8 204.844 8H295.313C298.125 8 300 9.875 300 12.6875C300 15.5 298.125 17.375 295.313 17.375Z" fill="#F8FCFE"/>
<path d="M237.188 34.25H295.313C298.125 34.25 300 36.125 300 38.9375C300 41.75 298.125 43.625 295.313 43.625H237.188C234.375 43.625 232.5 41.75 232.5 38.9375C232.5 36.125 234.375 34.25 237.188 34.25Z" fill="#F8FCFE"/>
<path d="M210 60.5H295.313C298.125 60.5 300 62.375 300 65.1875C300 68 298.125 69.875 295.313 69.875H210C207.187 69.875 205.312 68 205.312 65.1875C205.312 62.375 207.187 60.5 210 60.5Z" fill="#F8FCFE"/>
<path d="M223.594 86.7501H295.313C298.125 86.7501 300 88.6251 300 91.4376C300 94.2501 298.125 96.1251 295.313 96.1251H223.594C220.781 96.1251 218.906 94.2501 218.906 91.4376C218.906 88.6251 220.781 86.7501 223.594 86.7501Z" fill="#F8FCFE"/>
<path d="M237.188 113H295.313C298.125 113 300 114.875 300 117.688C300 120.5 298.125 122.375 295.313 122.375H237.188C234.375 122.375 232.5 120.5 232.5 117.688C232.5 114.875 234.375 113 237.188 113Z" fill="#F8FCFE"/>
<path d="M271.931 122.55C269.31 122.55 268 121.053 268 118.059V9.9411C268 6.9469 269.31 5.4498 271.931 5.4498H309.904C325.052 5.4498 336.006 8.38956 342.767 14.2691C349.581 20.1486 352.988 27.9063 352.988 37.5422C352.988 46.0348 350.236 53.1664 344.733 58.9371C339.282 64.7077 331.498 68.0286 321.383 68.8996V69.0629C326.729 73.2004 330.267 76.3579 331.996 78.5355C333.726 80.6586 335.665 83.544 337.814 87.1914L355.582 117.161C357.731 120.754 357.259 122.55 354.167 122.55H345.204C342.741 122.55 340.907 121.489 339.701 119.365L323.348 90.2129C320.99 86.021 317.609 81.9108 313.206 77.8822C308.804 73.8536 303.326 71.8394 296.775 71.8394H283.095V118.059C283.095 121.053 281.785 122.55 279.164 122.55H271.931ZM283.095 58.4471H305.816C316.037 58.4471 323.899 57.0589 329.402 54.2825C334.905 51.4516 337.657 45.5448 337.657 36.5622C337.657 29.7028 335.141 25.0482 330.11 22.5984C325.078 20.0942 318.238 18.842 309.59 18.842H283.095V58.4471Z" fill="#FFF6F6"/>
<path d="M400.848 122.55C398.228 122.55 396.917 121.053 396.917 118.059V9.9411C396.917 6.9469 398.228 5.4498 400.848 5.4498H469.64C472.523 5.4498 473.965 6.6747 473.965 9.1245V15.1673C473.965 17.6171 472.523 18.842 469.64 18.842H412.012V55.0991H464.923C467.806 55.0991 469.247 56.324 469.247 58.7738V64.8166C469.247 67.2664 467.806 68.4913 464.923 68.4913H412.012V109.158H471.999C474.882 109.158 476.323 110.383 476.323 112.833V118.876C476.323 121.325 474.882 122.55 471.999 122.55H400.848Z" fill="#FFF6F6"/>
<path d="M510.425 122.55C507.7 122.55 506.992 120.754 508.302 117.161L547.455 10.4311C548.661 7.11022 550.39 5.4498 552.644 5.4498H563.651C565.904 5.4498 567.634 7.11022 568.84 10.4311L607.992 117.161C609.302 120.754 608.595 122.55 605.869 122.55H597.85C595.072 122.55 593.185 121.216 592.19 118.549L582.362 91.5194H533.932L524.105 118.549C523.109 121.216 521.222 122.55 518.444 122.55H510.425ZM538.885 78.1272H577.409L565.38 45.4632C564.28 42.4145 563.179 39.0393 562.078 35.3373C561.03 31.6354 559.772 26.382 558.305 19.577H557.99C556.522 26.382 555.238 31.6354 554.138 35.3373C553.089 39.0393 552.015 42.4145 550.914 45.4632L538.885 78.1272Z" fill="#FFF6F6"/>
<path d="M646.261 122.55C643.64 122.55 642.33 121.053 642.33 118.059V9.9411C642.33 6.9469 643.64 5.4498 646.261 5.4498H653.494C656.115 5.4498 657.425 6.9469 657.425 9.9411V109.158H709.55C712.433 109.158 713.874 110.383 713.874 112.833V118.876C713.874 121.325 712.433 122.55 709.55 122.55H646.261Z" fill="#FFF6F6"/>
<path d="M750.649 113.731C747.871 111.118 747.137 108.831 748.448 106.871L752.536 100.747C753.951 98.6238 756.231 98.7871 759.376 101.237C763.516 104.449 767.814 107.089 772.269 109.158C776.777 111.227 782.228 112.261 788.622 112.261C793.339 112.261 797.323 111.526 800.572 110.056C803.822 108.586 806.417 106.49 808.356 103.768C810.348 100.992 811.343 97.6439 811.343 93.7242C811.343 90.8934 810.924 88.2802 810.085 85.8849C809.299 83.4351 808.015 81.3936 806.233 79.7604C804.451 78.1272 802.59 76.8478 800.651 75.9224C797.454 74.398 792.658 72.6287 786.264 70.6145C779.922 68.6002 774.366 66.4226 769.596 64.0817C764.879 61.7407 761.105 58.9099 758.275 55.589C755.497 52.2682 753.637 48.8657 752.693 45.3815C751.802 41.8429 751.357 37.8144 751.357 33.2959C751.357 26.382 753.296 20.4208 757.174 15.4123C761.053 10.4038 765.796 7.083 771.405 5.4498C777.065 3.8166 782.804 3 788.622 3C795.279 3 801.07 3.89826 805.997 5.69478C810.924 7.4913 815.327 9.83222 819.205 12.7175C821.931 14.7318 822.56 16.855 821.092 19.087L817.083 25.0482C815.877 26.8447 813.518 26.4636 810.007 23.905C807.334 21.9451 804.058 20.1214 800.179 18.4337C796.353 16.6917 792.553 15.8206 788.78 15.8206C783.958 15.8206 779.948 16.4195 776.751 17.6171C773.554 18.7604 771.038 20.7202 769.203 23.4967C767.369 26.2731 766.452 29.4851 766.452 33.1325C766.452 35.419 766.661 37.5422 767.081 39.502C767.5 41.4074 768.574 43.3672 770.304 45.3815C772.034 47.3958 774.13 48.9473 776.593 50.0361C779.896 51.506 785.006 53.2481 791.924 55.2624C798.895 57.2222 804.975 59.6448 810.164 62.5301C814.986 65.1977 818.445 68.0013 820.542 70.9411C822.691 73.8264 824.342 76.9839 825.495 80.4137C826.7 83.7889 827.303 87.5997 827.303 91.8461C827.303 99.5765 825.39 106.028 821.564 111.199C817.738 116.371 813.204 119.964 807.963 121.979C802.721 123.993 796.144 125 788.229 125C778.742 125 770.88 123.857 764.643 121.57C758.406 119.284 753.741 116.671 750.649 113.731Z" fill="#FFF6F6"/>
<path d="M860.383 64C860.383 44.946 864.917 30.0295 873.984 19.2503C883.104 8.41678 896.181 3 913.216 3C923.174 3 931.403 4.7693 937.902 8.3079C944.401 11.7921 949.066 16.5828 951.896 22.6801C953.364 25.8376 953.128 28.0152 951.189 29.2129L944.978 32.9692C942.881 34.2213 941.021 33.187 939.396 29.8661C937.666 26.4364 934.836 23.2245 930.905 20.2303C926.974 17.2361 921.34 15.739 914.002 15.739C900.898 15.739 891.359 19.9853 885.384 28.4779C879.461 36.9161 876.5 48.7568 876.5 64C876.5 79.2432 879.461 91.1111 885.384 99.6038C891.359 108.042 900.898 112.261 914.002 112.261C921.549 112.261 927.577 110.465 932.084 106.871C936.644 103.278 939.946 99.5221 941.99 95.6024C943.615 92.4449 945.502 91.4922 947.651 92.7443L954.176 96.5823C956.063 97.7256 956.22 99.9032 954.648 103.115C951.556 109.376 946.524 114.602 939.553 118.794C932.582 122.931 923.803 125 913.216 125C896.181 125 883.104 119.61 873.984 108.831C864.917 97.9978 860.383 83.054 860.383 64Z" fill="#FFF6F6"/>
<path d="M999.993 122.55C997.372 122.55 996.062 121.053 996.062 118.059V9.9411C996.062 6.9469 997.372 5.4498 999.993 5.4498H1007.23C1009.85 5.4498 1011.16 6.9469 1011.16 9.9411V54.9357H1066.03V9.9411C1066.03 6.9469 1067.34 5.4498 1069.96 5.4498H1077.2C1079.82 5.4498 1081.13 6.9469 1081.13 9.9411V118.059C1081.13 121.053 1079.82 122.55 1077.2 122.55H1069.96C1067.34 122.55 1066.03 121.053 1066.03 118.059V68.328H1011.16V118.059C1011.16 121.053 1009.85 122.55 1007.23 122.55H999.993Z" fill="#FFF6F6"/>
<path d="M1121.05 64C1121.05 44.946 1125.56 30.0295 1134.57 19.2503C1143.64 8.41678 1156.69 3 1173.72 3C1190.76 3 1203.78 8.41678 1212.8 19.2503C1221.86 30.0295 1226.4 44.946 1226.4 64C1226.4 83.054 1221.86 97.9978 1212.8 108.831C1203.78 119.61 1190.76 125 1173.72 125C1156.69 125 1143.64 119.61 1134.57 108.831C1125.56 97.9978 1121.05 83.054 1121.05 64ZM1137.17 64C1137.17 79.2432 1140.18 91.1111 1146.21 99.6038C1152.23 108.042 1161.41 112.261 1173.72 112.261C1186.04 112.261 1195.21 108.042 1201.24 99.6038C1207.27 91.1111 1210.28 79.2432 1210.28 64C1210.28 48.7568 1207.27 36.9161 1201.24 28.4779C1195.21 19.9853 1186.04 15.739 1173.72 15.739C1161.41 15.739 1152.23 19.9853 1146.21 28.4779C1140.18 36.9161 1137.17 48.7568 1137.17 64Z" fill="#FFF6F6"/>
<path d="M1260.19 64C1260.19 44.946 1264.69 30.0295 1273.71 19.2503C1282.78 8.41678 1295.83 3 1312.86 3C1329.9 3 1342.92 8.41678 1351.94 19.2503C1361 30.0295 1365.54 44.946 1365.54 64C1365.54 83.054 1361 97.9978 1351.94 108.831C1342.92 119.61 1329.9 125 1312.86 125C1295.83 125 1282.78 119.61 1273.71 108.831C1264.69 97.9978 1260.19 83.054 1260.19 64ZM1276.3 64C1276.3 79.2432 1279.32 91.1111 1285.34 99.6038C1291.37 108.042 1300.54 112.261 1312.86 112.261C1325.18 112.261 1334.35 108.042 1340.38 99.6038C1346.41 91.1111 1349.42 79.2432 1349.42 64C1349.42 48.7568 1346.41 36.9161 1340.38 28.4779C1334.35 19.9853 1325.18 15.739 1312.86 15.739C1300.54 15.739 1291.37 19.9853 1285.34 28.4779C1279.32 36.9161 1276.3 48.7568 1276.3 64Z" fill="#FFF6F6"/>
<path d="M1409.39 122.55C1406.77 122.55 1405.46 121.053 1405.46 118.059V9.9411C1405.46 6.9469 1406.77 5.4498 1409.39 5.4498H1416.62C1419.24 5.4498 1420.55 6.9469 1420.55 9.9411V109.158H1472.68C1475.56 109.158 1477 110.383 1477 112.833V118.876C1477 121.325 1475.56 122.55 1472.68 122.55H1409.39Z" fill="#FFF6F6"/>
<mask id="path-8-outside-1_14_75" maskUnits="userSpaceOnUse" x="269" y="0" width="1215" height="128" fill="black">
<rect fill="white" x="269" width="1215" height="128"/>
<path d="M275.931 122.55C273.31 122.55 272 121.053 272 118.059V9.9411C272 6.9469 273.31 5.4498 275.931 5.4498H313.904C329.052 5.4498 340.006 8.38956 346.767 14.2691C353.581 20.1486 356.988 27.9063 356.988 37.5422C356.988 46.0348 354.236 53.1664 348.733 58.9371C343.282 64.7077 335.498 68.0286 325.383 68.8996V69.0629C330.729 73.2004 334.267 76.3579 335.996 78.5355C337.726 80.6586 339.665 83.544 341.814 87.1914L359.582 117.161C361.731 120.754 361.259 122.55 358.167 122.55H349.204C346.741 122.55 344.907 121.489 343.701 119.365L327.348 90.2129C324.99 86.021 321.609 81.9108 317.206 77.8822C312.804 73.8536 307.326 71.8394 300.775 71.8394H287.095V118.059C287.095 121.053 285.785 122.55 283.164 122.55H275.931ZM287.095 58.4471H309.816C320.037 58.4471 327.899 57.0589 333.402 54.2825C338.905 51.4516 341.657 45.5448 341.657 36.5622C341.657 29.7028 339.141 25.0482 334.11 22.5984C329.078 20.0942 322.238 18.842 313.59 18.842H287.095V58.4471Z"/>
<path d="M404.848 122.55C402.228 122.55 400.917 121.053 400.917 118.059V9.9411C400.917 6.9469 402.228 5.4498 404.848 5.4498H473.64C476.523 5.4498 477.965 6.6747 477.965 9.1245V15.1673C477.965 17.6171 476.523 18.842 473.64 18.842H416.012V55.0991H468.923C471.806 55.0991 473.247 56.324 473.247 58.7738V64.8166C473.247 67.2664 471.806 68.4913 468.923 68.4913H416.012V109.158H475.999C478.882 109.158 480.323 110.383 480.323 112.833V118.876C480.323 121.325 478.882 122.55 475.999 122.55H404.848Z"/>
<path d="M514.425 122.55C511.7 122.55 510.992 120.754 512.302 117.161L551.455 10.4311C552.661 7.11022 554.39 5.4498 556.644 5.4498H567.651C569.904 5.4498 571.634 7.11022 572.84 10.4311L611.992 117.161C613.302 120.754 612.595 122.55 609.869 122.55H601.85C599.072 122.55 597.185 121.216 596.19 118.549L586.362 91.5194H537.932L528.105 118.549C527.109 121.216 525.222 122.55 522.444 122.55H514.425ZM542.885 78.1272H581.409L569.38 45.4632C568.28 42.4145 567.179 39.0393 566.078 35.3373C565.03 31.6354 563.772 26.382 562.305 19.577H561.99C560.522 26.382 559.238 31.6354 558.138 35.3373C557.089 39.0393 556.015 42.4145 554.914 45.4632L542.885 78.1272Z"/>
<path d="M650.261 122.55C647.64 122.55 646.33 121.053 646.33 118.059V9.9411C646.33 6.9469 647.64 5.4498 650.261 5.4498H657.494C660.115 5.4498 661.425 6.9469 661.425 9.9411V109.158H713.55C716.433 109.158 717.874 110.383 717.874 112.833V118.876C717.874 121.325 716.433 122.55 713.55 122.55H650.261Z"/>
<path d="M754.649 113.731C751.871 111.118 751.137 108.831 752.448 106.871L756.536 100.747C757.951 98.6238 760.231 98.7871 763.376 101.237C767.516 104.449 771.814 107.089 776.269 109.158C780.777 111.227 786.228 112.261 792.622 112.261C797.339 112.261 801.323 111.526 804.572 110.056C807.822 108.586 810.417 106.49 812.356 103.768C814.348 100.992 815.343 97.6439 815.343 93.7242C815.343 90.8934 814.924 88.2802 814.085 85.8849C813.299 83.4351 812.015 81.3936 810.233 79.7604C808.451 78.1272 806.59 76.8478 804.651 75.9224C801.454 74.398 796.658 72.6287 790.264 70.6145C783.922 68.6002 778.366 66.4226 773.596 64.0817C768.879 61.7407 765.105 58.9099 762.275 55.589C759.497 52.2682 757.637 48.8657 756.693 45.3815C755.802 41.8429 755.357 37.8144 755.357 33.2959C755.357 26.382 757.296 20.4208 761.174 15.4123C765.053 10.4038 769.796 7.083 775.405 5.4498C781.065 3.8166 786.804 3 792.622 3C799.279 3 805.07 3.89826 809.997 5.69478C814.924 7.4913 819.327 9.83222 823.205 12.7175C825.931 14.7318 826.56 16.855 825.092 19.087L821.083 25.0482C819.877 26.8447 817.518 26.4636 814.007 23.905C811.334 21.9451 808.058 20.1214 804.179 18.4337C800.353 16.6917 796.553 15.8206 792.78 15.8206C787.958 15.8206 783.948 16.4195 780.751 17.6171C777.554 18.7604 775.038 20.7202 773.203 23.4967C771.369 26.2731 770.452 29.4851 770.452 33.1325C770.452 35.419 770.661 37.5422 771.081 39.502C771.5 41.4074 772.574 43.3672 774.304 45.3815C776.034 47.3958 778.13 48.9473 780.593 50.0361C783.896 51.506 789.006 53.2481 795.924 55.2624C802.895 57.2222 808.975 59.6448 814.164 62.5301C818.986 65.1977 822.445 68.0013 824.542 70.9411C826.691 73.8264 828.342 76.9839 829.495 80.4137C830.7 83.7889 831.303 87.5997 831.303 91.8461C831.303 99.5765 829.39 106.028 825.564 111.199C821.738 116.371 817.204 119.964 811.963 121.979C806.721 123.993 800.144 125 792.229 125C782.742 125 774.88 123.857 768.643 121.57C762.406 119.284 757.741 116.671 754.649 113.731Z"/>
<path d="M864.383 64C864.383 44.946 868.917 30.0295 877.984 19.2503C887.104 8.41678 900.181 3 917.216 3C927.174 3 935.403 4.7693 941.902 8.3079C948.401 11.7921 953.066 16.5828 955.896 22.6801C957.364 25.8376 957.128 28.0152 955.189 29.2129L948.978 32.9692C946.881 34.2213 945.021 33.187 943.396 29.8661C941.666 26.4364 938.836 23.2245 934.905 20.2303C930.974 17.2361 925.34 15.739 918.002 15.739C904.898 15.739 895.359 19.9853 889.384 28.4779C883.461 36.9161 880.5 48.7568 880.5 64C880.5 79.2432 883.461 91.1111 889.384 99.6038C895.359 108.042 904.898 112.261 918.002 112.261C925.549 112.261 931.577 110.465 936.084 106.871C940.644 103.278 943.946 99.5221 945.99 95.6024C947.615 92.4449 949.502 91.4922 951.651 92.7443L958.176 96.5823C960.063 97.7256 960.22 99.9032 958.648 103.115C955.556 109.376 950.524 114.602 943.553 118.794C936.582 122.931 927.803 125 917.216 125C900.181 125 887.104 119.61 877.984 108.831C868.917 97.9978 864.383 83.054 864.383 64Z"/>
<path d="M1003.99 122.55C1001.37 122.55 1000.06 121.053 1000.06 118.059V9.9411C1000.06 6.9469 1001.37 5.4498 1003.99 5.4498H1011.23C1013.85 5.4498 1015.16 6.9469 1015.16 9.9411V54.9357H1070.03V9.9411C1070.03 6.9469 1071.34 5.4498 1073.96 5.4498H1081.2C1083.82 5.4498 1085.13 6.9469 1085.13 9.9411V118.059C1085.13 121.053 1083.82 122.55 1081.2 122.55H1073.96C1071.34 122.55 1070.03 121.053 1070.03 118.059V68.328H1015.16V118.059C1015.16 121.053 1013.85 122.55 1011.23 122.55H1003.99Z"/>
<path d="M1125.05 64C1125.05 44.946 1129.56 30.0295 1138.57 19.2503C1147.64 8.41678 1160.69 3 1177.72 3C1194.76 3 1207.78 8.41678 1216.8 19.2503C1225.86 30.0295 1230.4 44.946 1230.4 64C1230.4 83.054 1225.86 97.9978 1216.8 108.831C1207.78 119.61 1194.76 125 1177.72 125C1160.69 125 1147.64 119.61 1138.57 108.831C1129.56 97.9978 1125.05 83.054 1125.05 64ZM1141.17 64C1141.17 79.2432 1144.18 91.1111 1150.21 99.6038C1156.23 108.042 1165.41 112.261 1177.72 112.261C1190.04 112.261 1199.21 108.042 1205.24 99.6038C1211.27 91.1111 1214.28 79.2432 1214.28 64C1214.28 48.7568 1211.27 36.9161 1205.24 28.4779C1199.21 19.9853 1190.04 15.739 1177.72 15.739C1165.41 15.739 1156.23 19.9853 1150.21 28.4779C1144.18 36.9161 1141.17 48.7568 1141.17 64Z"/>
<path d="M1264.19 64C1264.19 44.946 1268.69 30.0295 1277.71 19.2503C1286.78 8.41678 1299.83 3 1316.86 3C1333.9 3 1346.92 8.41678 1355.94 19.2503C1365 30.0295 1369.54 44.946 1369.54 64C1369.54 83.054 1365 97.9978 1355.94 108.831C1346.92 119.61 1333.9 125 1316.86 125C1299.83 125 1286.78 119.61 1277.71 108.831C1268.69 97.9978 1264.19 83.054 1264.19 64ZM1280.3 64C1280.3 79.2432 1283.32 91.1111 1289.34 99.6038C1295.37 108.042 1304.54 112.261 1316.86 112.261C1329.18 112.261 1338.35 108.042 1344.38 99.6038C1350.41 91.1111 1353.42 79.2432 1353.42 64C1353.42 48.7568 1350.41 36.9161 1344.38 28.4779C1338.35 19.9853 1329.18 15.739 1316.86 15.739C1304.54 15.739 1295.37 19.9853 1289.34 28.4779C1283.32 36.9161 1280.3 48.7568 1280.3 64Z"/>
<path d="M1413.39 122.55C1410.77 122.55 1409.46 121.053 1409.46 118.059V9.9411C1409.46 6.9469 1410.77 5.4498 1413.39 5.4498H1420.62C1423.24 5.4498 1424.55 6.9469 1424.55 9.9411V109.158H1476.68C1479.56 109.158 1481 110.383 1481 112.833V118.876C1481 121.325 1479.56 122.55 1476.68 122.55H1413.39Z"/>
</mask>
<path d="M275.931 122.55C273.31 122.55 272 121.053 272 118.059V9.9411C272 6.9469 273.31 5.4498 275.931 5.4498H313.904C329.052 5.4498 340.006 8.38956 346.767 14.2691C353.581 20.1486 356.988 27.9063 356.988 37.5422C356.988 46.0348 354.236 53.1664 348.733 58.9371C343.282 64.7077 335.498 68.0286 325.383 68.8996V69.0629C330.729 73.2004 334.267 76.3579 335.996 78.5355C337.726 80.6586 339.665 83.544 341.814 87.1914L359.582 117.161C361.731 120.754 361.259 122.55 358.167 122.55H349.204C346.741 122.55 344.907 121.489 343.701 119.365L327.348 90.2129C324.99 86.021 321.609 81.9108 317.206 77.8822C312.804 73.8536 307.326 71.8394 300.775 71.8394H287.095V118.059C287.095 121.053 285.785 122.55 283.164 122.55H275.931ZM287.095 58.4471H309.816C320.037 58.4471 327.899 57.0589 333.402 54.2825C338.905 51.4516 341.657 45.5448 341.657 36.5622C341.657 29.7028 339.141 25.0482 334.11 22.5984C329.078 20.0942 322.238 18.842 313.59 18.842H287.095V58.4471Z" fill="#FFF6F6"/>
<path d="M404.848 122.55C402.228 122.55 400.917 121.053 400.917 118.059V9.9411C400.917 6.9469 402.228 5.4498 404.848 5.4498H473.64C476.523 5.4498 477.965 6.6747 477.965 9.1245V15.1673C477.965 17.6171 476.523 18.842 473.64 18.842H416.012V55.0991H468.923C471.806 55.0991 473.247 56.324 473.247 58.7738V64.8166C473.247 67.2664 471.806 68.4913 468.923 68.4913H416.012V109.158H475.999C478.882 109.158 480.323 110.383 480.323 112.833V118.876C480.323 121.325 478.882 122.55 475.999 122.55H404.848Z" fill="#FFF6F6"/>
<path d="M514.425 122.55C511.7 122.55 510.992 120.754 512.302 117.161L551.455 10.4311C552.661 7.11022 554.39 5.4498 556.644 5.4498H567.651C569.904 5.4498 571.634 7.11022 572.84 10.4311L611.992 117.161C613.302 120.754 612.595 122.55 609.869 122.55H601.85C599.072 122.55 597.185 121.216 596.19 118.549L586.362 91.5194H537.932L528.105 118.549C527.109 121.216 525.222 122.55 522.444 122.55H514.425ZM542.885 78.1272H581.409L569.38 45.4632C568.28 42.4145 567.179 39.0393 566.078 35.3373C565.03 31.6354 563.772 26.382 562.305 19.577H561.99C560.522 26.382 559.238 31.6354 558.138 35.3373C557.089 39.0393 556.015 42.4145 554.914 45.4632L542.885 78.1272Z" fill="#FFF6F6"/>
<path d="M650.261 122.55C647.64 122.55 646.33 121.053 646.33 118.059V9.9411C646.33 6.9469 647.64 5.4498 650.261 5.4498H657.494C660.115 5.4498 661.425 6.9469 661.425 9.9411V109.158H713.55C716.433 109.158 717.874 110.383 717.874 112.833V118.876C717.874 121.325 716.433 122.55 713.55 122.55H650.261Z" fill="#FFF6F6"/>
<path d="M754.649 113.731C751.871 111.118 751.137 108.831 752.448 106.871L756.536 100.747C757.951 98.6238 760.231 98.7871 763.376 101.237C767.516 104.449 771.814 107.089 776.269 109.158C780.777 111.227 786.228 112.261 792.622 112.261C797.339 112.261 801.323 111.526 804.572 110.056C807.822 108.586 810.417 106.49 812.356 103.768C814.348 100.992 815.343 97.6439 815.343 93.7242C815.343 90.8934 814.924 88.2802 814.085 85.8849C813.299 83.4351 812.015 81.3936 810.233 79.7604C808.451 78.1272 806.59 76.8478 804.651 75.9224C801.454 74.398 796.658 72.6287 790.264 70.6145C783.922 68.6002 778.366 66.4226 773.596 64.0817C768.879 61.7407 765.105 58.9099 762.275 55.589C759.497 52.2682 757.637 48.8657 756.693 45.3815C755.802 41.8429 755.357 37.8144 755.357 33.2959C755.357 26.382 757.296 20.4208 761.174 15.4123C765.053 10.4038 769.796 7.083 775.405 5.4498C781.065 3.8166 786.804 3 792.622 3C799.279 3 805.07 3.89826 809.997 5.69478C814.924 7.4913 819.327 9.83222 823.205 12.7175C825.931 14.7318 826.56 16.855 825.092 19.087L821.083 25.0482C819.877 26.8447 817.518 26.4636 814.007 23.905C811.334 21.9451 808.058 20.1214 804.179 18.4337C800.353 16.6917 796.553 15.8206 792.78 15.8206C787.958 15.8206 783.948 16.4195 780.751 17.6171C777.554 18.7604 775.038 20.7202 773.203 23.4967C771.369 26.2731 770.452 29.4851 770.452 33.1325C770.452 35.419 770.661 37.5422 771.081 39.502C771.5 41.4074 772.574 43.3672 774.304 45.3815C776.034 47.3958 778.13 48.9473 780.593 50.0361C783.896 51.506 789.006 53.2481 795.924 55.2624C802.895 57.2222 808.975 59.6448 814.164 62.5301C818.986 65.1977 822.445 68.0013 824.542 70.9411C826.691 73.8264 828.342 76.9839 829.495 80.4137C830.7 83.7889 831.303 87.5997 831.303 91.8461C831.303 99.5765 829.39 106.028 825.564 111.199C821.738 116.371 817.204 119.964 811.963 121.979C806.721 123.993 800.144 125 792.229 125C782.742 125 774.88 123.857 768.643 121.57C762.406 119.284 757.741 116.671 754.649 113.731Z" fill="#FFF6F6"/>
<path d="M864.383 64C864.383 44.946 868.917 30.0295 877.984 19.2503C887.104 8.41678 900.181 3 917.216 3C927.174 3 935.403 4.7693 941.902 8.3079C948.401 11.7921 953.066 16.5828 955.896 22.6801C957.364 25.8376 957.128 28.0152 955.189 29.2129L948.978 32.9692C946.881 34.2213 945.021 33.187 943.396 29.8661C941.666 26.4364 938.836 23.2245 934.905 20.2303C930.974 17.2361 925.34 15.739 918.002 15.739C904.898 15.739 895.359 19.9853 889.384 28.4779C883.461 36.9161 880.5 48.7568 880.5 64C880.5 79.2432 883.461 91.1111 889.384 99.6038C895.359 108.042 904.898 112.261 918.002 112.261C925.549 112.261 931.577 110.465 936.084 106.871C940.644 103.278 943.946 99.5221 945.99 95.6024C947.615 92.4449 949.502 91.4922 951.651 92.7443L958.176 96.5823C960.063 97.7256 960.22 99.9032 958.648 103.115C955.556 109.376 950.524 114.602 943.553 118.794C936.582 122.931 927.803 125 917.216 125C900.181 125 887.104 119.61 877.984 108.831C868.917 97.9978 864.383 83.054 864.383 64Z" fill="#FFF6F6"/>
<path d="M1003.99 122.55C1001.37 122.55 1000.06 121.053 1000.06 118.059V9.9411C1000.06 6.9469 1001.37 5.4498 1003.99 5.4498H1011.23C1013.85 5.4498 1015.16 6.9469 1015.16 9.9411V54.9357H1070.03V9.9411C1070.03 6.9469 1071.34 5.4498 1073.96 5.4498H1081.2C1083.82 5.4498 1085.13 6.9469 1085.13 9.9411V118.059C1085.13 121.053 1083.82 122.55 1081.2 122.55H1073.96C1071.34 122.55 1070.03 121.053 1070.03 118.059V68.328H1015.16V118.059C1015.16 121.053 1013.85 122.55 1011.23 122.55H1003.99Z" fill="#FFF6F6"/>
<path d="M1125.05 64C1125.05 44.946 1129.56 30.0295 1138.57 19.2503C1147.64 8.41678 1160.69 3 1177.72 3C1194.76 3 1207.78 8.41678 1216.8 19.2503C1225.86 30.0295 1230.4 44.946 1230.4 64C1230.4 83.054 1225.86 97.9978 1216.8 108.831C1207.78 119.61 1194.76 125 1177.72 125C1160.69 125 1147.64 119.61 1138.57 108.831C1129.56 97.9978 1125.05 83.054 1125.05 64ZM1141.17 64C1141.17 79.2432 1144.18 91.1111 1150.21 99.6038C1156.23 108.042 1165.41 112.261 1177.72 112.261C1190.04 112.261 1199.21 108.042 1205.24 99.6038C1211.27 91.1111 1214.28 79.2432 1214.28 64C1214.28 48.7568 1211.27 36.9161 1205.24 28.4779C1199.21 19.9853 1190.04 15.739 1177.72 15.739C1165.41 15.739 1156.23 19.9853 1150.21 28.4779C1144.18 36.9161 1141.17 48.7568 1141.17 64Z" fill="#FFF6F6"/>
<path d="M1264.19 64C1264.19 44.946 1268.69 30.0295 1277.71 19.2503C1286.78 8.41678 1299.83 3 1316.86 3C1333.9 3 1346.92 8.41678 1355.94 19.2503C1365 30.0295 1369.54 44.946 1369.54 64C1369.54 83.054 1365 97.9978 1355.94 108.831C1346.92 119.61 1333.9 125 1316.86 125C1299.83 125 1286.78 119.61 1277.71 108.831C1268.69 97.9978 1264.19 83.054 1264.19 64ZM1280.3 64C1280.3 79.2432 1283.32 91.1111 1289.34 99.6038C1295.37 108.042 1304.54 112.261 1316.86 112.261C1329.18 112.261 1338.35 108.042 1344.38 99.6038C1350.41 91.1111 1353.42 79.2432 1353.42 64C1353.42 48.7568 1350.41 36.9161 1344.38 28.4779C1338.35 19.9853 1329.18 15.739 1316.86 15.739C1304.54 15.739 1295.37 19.9853 1289.34 28.4779C1283.32 36.9161 1280.3 48.7568 1280.3 64Z" fill="#FFF6F6"/>
<path d="M1413.39 122.55C1410.77 122.55 1409.46 121.053 1409.46 118.059V9.9411C1409.46 6.9469 1410.77 5.4498 1413.39 5.4498H1420.62C1423.24 5.4498 1424.55 6.9469 1424.55 9.9411V109.158H1476.68C1479.56 109.158 1481 110.383 1481 112.833V118.876C1481 121.325 1479.56 122.55 1476.68 122.55H1413.39Z" fill="#FFF6F6"/>
<path d="M275.931 122.55C273.31 122.55 272 121.053 272 118.059V9.9411C272 6.9469 273.31 5.4498 275.931 5.4498H313.904C329.052 5.4498 340.006 8.38956 346.767 14.2691C353.581 20.1486 356.988 27.9063 356.988 37.5422C356.988 46.0348 354.236 53.1664 348.733 58.9371C343.282 64.7077 335.498 68.0286 325.383 68.8996V69.0629C330.729 73.2004 334.267 76.3579 335.996 78.5355C337.726 80.6586 339.665 83.544 341.814 87.1914L359.582 117.161C361.731 120.754 361.259 122.55 358.167 122.55H349.204C346.741 122.55 344.907 121.489 343.701 119.365L327.348 90.2129C324.99 86.021 321.609 81.9108 317.206 77.8822C312.804 73.8536 307.326 71.8394 300.775 71.8394H287.095V118.059C287.095 121.053 285.785 122.55 283.164 122.55H275.931ZM287.095 58.4471H309.816C320.037 58.4471 327.899 57.0589 333.402 54.2825C338.905 51.4516 341.657 45.5448 341.657 36.5622C341.657 29.7028 339.141 25.0482 334.11 22.5984C329.078 20.0942 322.238 18.842 313.59 18.842H287.095V58.4471Z" stroke="#F8FCFE" stroke-width="6" mask="url(#path-8-outside-1_14_75)"/>
<path d="M404.848 122.55C402.228 122.55 400.917 121.053 400.917 118.059V9.9411C400.917 6.9469 402.228 5.4498 404.848 5.4498H473.64C476.523 5.4498 477.965 6.6747 477.965 9.1245V15.1673C477.965 17.6171 476.523 18.842 473.64 18.842H416.012V55.0991H468.923C471.806 55.0991 473.247 56.324 473.247 58.7738V64.8166C473.247 67.2664 471.806 68.4913 468.923 68.4913H416.012V109.158H475.999C478.882 109.158 480.323 110.383 480.323 112.833V118.876C480.323 121.325 478.882 122.55 475.999 122.55H404.848Z" stroke="#F8FCFE" stroke-width="6" mask="url(#path-8-outside-1_14_75)"/>
<path d="M514.425 122.55C511.7 122.55 510.992 120.754 512.302 117.161L551.455 10.4311C552.661 7.11022 554.39 5.4498 556.644 5.4498H567.651C569.904 5.4498 571.634 7.11022 572.84 10.4311L611.992 117.161C613.302 120.754 612.595 122.55 609.869 122.55H601.85C599.072 122.55 597.185 121.216 596.19 118.549L586.362 91.5194H537.932L528.105 118.549C527.109 121.216 525.222 122.55 522.444 122.55H514.425ZM542.885 78.1272H581.409L569.38 45.4632C568.28 42.4145 567.179 39.0393 566.078 35.3373C565.03 31.6354 563.772 26.382 562.305 19.577H561.99C560.522 26.382 559.238 31.6354 558.138 35.3373C557.089 39.0393 556.015 42.4145 554.914 45.4632L542.885 78.1272Z" stroke="#F8FCFE" stroke-width="6" mask="url(#path-8-outside-1_14_75)"/>
<path d="M650.261 122.55C647.64 122.55 646.33 121.053 646.33 118.059V9.9411C646.33 6.9469 647.64 5.4498 650.261 5.4498H657.494C660.115 5.4498 661.425 6.9469 661.425 9.9411V109.158H713.55C716.433 109.158 717.874 110.383 717.874 112.833V118.876C717.874 121.325 716.433 122.55 713.55 122.55H650.261Z" stroke="#F8FCFE" stroke-width="6" mask="url(#path-8-outside-1_14_75)"/>
<path d="M754.649 113.731C751.871 111.118 751.137 108.831 752.448 106.871L756.536 100.747C757.951 98.6238 760.231 98.7871 763.376 101.237C767.516 104.449 771.814 107.089 776.269 109.158C780.777 111.227 786.228 112.261 792.622 112.261C797.339 112.261 801.323 111.526 804.572 110.056C807.822 108.586 810.417 106.49 812.356 103.768C814.348 100.992 815.343 97.6439 815.343 93.7242C815.343 90.8934 814.924 88.2802 814.085 85.8849C813.299 83.4351 812.015 81.3936 810.233 79.7604C808.451 78.1272 806.59 76.8478 804.651 75.9224C801.454 74.398 796.658 72.6287 790.264 70.6145C783.922 68.6002 778.366 66.4226 773.596 64.0817C768.879 61.7407 765.105 58.9099 762.275 55.589C759.497 52.2682 757.637 48.8657 756.693 45.3815C755.802 41.8429 755.357 37.8144 755.357 33.2959C755.357 26.382 757.296 20.4208 761.174 15.4123C765.053 10.4038 769.796 7.083 775.405 5.4498C781.065 3.8166 786.804 3 792.622 3C799.279 3 805.07 3.89826 809.997 5.69478C814.924 7.4913 819.327 9.83222 823.205 12.7175C825.931 14.7318 826.56 16.855 825.092 19.087L821.083 25.0482C819.877 26.8447 817.518 26.4636 814.007 23.905C811.334 21.9451 808.058 20.1214 804.179 18.4337C800.353 16.6917 796.553 15.8206 792.78 15.8206C787.958 15.8206 783.948 16.4195 780.751 17.6171C777.554 18.7604 775.038 20.7202 773.203 23.4967C771.369 26.2731 770.452 29.4851 770.452 33.1325C770.452 35.419 770.661 37.5422 771.081 39.502C771.5 41.4074 772.574 43.3672 774.304 45.3815C776.034 47.3958 778.13 48.9473 780.593 50.0361C783.896 51.506 789.006 53.2481 795.924 55.2624C802.895 57.2222 808.975 59.6448 814.164 62.5301C818.986 65.1977 822.445 68.0013 824.542 70.9411C826.691 73.8264 828.342 76.9839 829.495 80.4137C830.7 83.7889 831.303 87.5997 831.303 91.8461C831.303 99.5765 829.39 106.028 825.564 111.199C821.738 116.371 817.204 119.964 811.963 121.979C806.721 123.993 800.144 125 792.229 125C782.742 125 774.88 123.857 768.643 121.57C762.406 119.284 757.741 116.671 754.649 113.731Z" stroke="#F8FCFE" stroke-width="6" mask="url(#path-8-outside-1_14_75)"/>
<path d="M864.383 64C864.383 44.946 868.917 30.0295 877.984 19.2503C887.104 8.41678 900.181 3 917.216 3C927.174 3 935.403 4.7693 941.902 8.3079C948.401 11.7921 953.066 16.5828 955.896 22.6801C957.364 25.8376 957.128 28.0152 955.189 29.2129L948.978 32.9692C946.881 34.2213 945.021 33.187 943.396 29.8661C941.666 26.4364 938.836 23.2245 934.905 20.2303C930.974 17.2361 925.34 15.739 918.002 15.739C904.898 15.739 895.359 19.9853 889.384 28.4779C883.461 36.9161 880.5 48.7568 880.5 64C880.5 79.2432 883.461 91.1111 889.384 99.6038C895.359 108.042 904.898 112.261 918.002 112.261C925.549 112.261 931.577 110.465 936.084 106.871C940.644 103.278 943.946 99.5221 945.99 95.6024C947.615 92.4449 949.502 91.4922 951.651 92.7443L958.176 96.5823C960.063 97.7256 960.22 99.9032 958.648 103.115C955.556 109.376 950.524 114.602 943.553 118.794C936.582 122.931 927.803 125 917.216 125C900.181 125 887.104 119.61 877.984 108.831C868.917 97.9978 864.383 83.054 864.383 64Z" stroke="#F8FCFE" stroke-width="6" mask="url(#path-8-outside-1_14_75)"/>
<path d="M1003.99 122.55C1001.37 122.55 1000.06 121.053 1000.06 118.059V9.9411C1000.06 6.9469 1001.37 5.4498 1003.99 5.4498H1011.23C1013.85 5.4498 1015.16 6.9469 1015.16 9.9411V54.9357H1070.03V9.9411C1070.03 6.9469 1071.34 5.4498 1073.96 5.4498H1081.2C1083.82 5.4498 1085.13 6.9469 1085.13 9.9411V118.059C1085.13 121.053 1083.82 122.55 1081.2 122.55H1073.96C1071.34 122.55 1070.03 121.053 1070.03 118.059V68.328H1015.16V118.059C1015.16 121.053 1013.85 122.55 1011.23 122.55H1003.99Z" stroke="#F8FCFE" stroke-width="6" mask="url(#path-8-outside-1_14_75)"/>
<path d="M1125.05 64C1125.05 44.946 1129.56 30.0295 1138.57 19.2503C1147.64 8.41678 1160.69 3 1177.72 3C1194.76 3 1207.78 8.41678 1216.8 19.2503C1225.86 30.0295 1230.4 44.946 1230.4 64C1230.4 83.054 1225.86 97.9978 1216.8 108.831C1207.78 119.61 1194.76 125 1177.72 125C1160.69 125 1147.64 119.61 1138.57 108.831C1129.56 97.9978 1125.05 83.054 1125.05 64ZM1141.17 64C1141.17 79.2432 1144.18 91.1111 1150.21 99.6038C1156.23 108.042 1165.41 112.261 1177.72 112.261C1190.04 112.261 1199.21 108.042 1205.24 99.6038C1211.27 91.1111 1214.28 79.2432 1214.28 64C1214.28 48.7568 1211.27 36.9161 1205.24 28.4779C1199.21 19.9853 1190.04 15.739 1177.72 15.739C1165.41 15.739 1156.23 19.9853 1150.21 28.4779C1144.18 36.9161 1141.17 48.7568 1141.17 64Z" stroke="#F8FCFE" stroke-width="6" mask="url(#path-8-outside-1_14_75)"/>
<path d="M1264.19 64C1264.19 44.946 1268.69 30.0295 1277.71 19.2503C1286.78 8.41678 1299.83 3 1316.86 3C1333.9 3 1346.92 8.41678 1355.94 19.2503C1365 30.0295 1369.54 44.946 1369.54 64C1369.54 83.054 1365 97.9978 1355.94 108.831C1346.92 119.61 1333.9 125 1316.86 125C1299.83 125 1286.78 119.61 1277.71 108.831C1268.69 97.9978 1264.19 83.054 1264.19 64ZM1280.3 64C1280.3 79.2432 1283.32 91.1111 1289.34 99.6038C1295.37 108.042 1304.54 112.261 1316.86 112.261C1329.18 112.261 1338.35 108.042 1344.38 99.6038C1350.41 91.1111 1353.42 79.2432 1353.42 64C1353.42 48.7568 1350.41 36.9161 1344.38 28.4779C1338.35 19.9853 1329.18 15.739 1316.86 15.739C1304.54 15.739 1295.37 19.9853 1289.34 28.4779C1283.32 36.9161 1280.3 48.7568 1280.3 64Z" stroke="#F8FCFE" stroke-width="6" mask="url(#path-8-outside-1_14_75)"/>
<path d="M1413.39 122.55C1410.77 122.55 1409.46 121.053 1409.46 118.059V9.9411C1409.46 6.9469 1410.77 5.4498 1413.39 5.4498H1420.62C1423.24 5.4498 1424.55 6.9469 1424.55 9.9411V109.158H1476.68C1479.56 109.158 1481 110.383 1481 112.833V118.876C1481 121.325 1479.56 122.55 1476.68 122.55H1413.39Z" stroke="#F8FCFE" stroke-width="6" mask="url(#path-8-outside-1_14_75)"/>
<g style="mix-blend-mode:plus-lighter">
<path d="M295.313 17.375H204.844C202.031 17.375 200.156 15.5 200.156 12.6875C200.156 9.875 202.031 8 204.844 8H295.313C298.125 8 300 9.875 300 12.6875C300 15.5 298.125 17.375 295.313 17.375Z" fill="#F8FCFE"/>
<path d="M237.188 34.25H295.313C298.125 34.25 300 36.125 300 38.9375C300 41.75 298.125 43.625 295.313 43.625H237.188C234.375 43.625 232.5 41.75 232.5 38.9375C232.5 36.125 234.375 34.25 237.188 34.25Z" fill="#F8FCFE"/>
<path d="M210 60.5H295.313C298.125 60.5 300 62.375 300 65.1875C300 68 298.125 69.875 295.313 69.875H210C207.187 69.875 205.312 68 205.312 65.1875C205.312 62.375 207.187 60.5 210 60.5Z" fill="#F8FCFE"/>
<path d="M223.594 86.7501H295.313C298.125 86.7501 300 88.6251 300 91.4376C300 94.2501 298.125 96.1251 295.313 96.1251H223.594C220.781 96.1251 218.906 94.2501 218.906 91.4376C218.906 88.6251 220.781 86.7501 223.594 86.7501Z" fill="#F8FCFE"/>
<path d="M237.188 113H295.313C298.125 113 300 114.875 300 117.688C300 120.5 298.125 122.375 295.313 122.375H237.188C234.375 122.375 232.5 120.5 232.5 117.688C232.5 114.875 234.375 113 237.188 113Z" fill="#F8FCFE"/>
</g>
</svg>
