<svg width="1485" height="309" viewBox="0 0 1485 309" fill="none" xmlns="http://www.w3.org/2000/svg">
<path d="M285.5 158.969C282.688 158.969 280.813 160.844 280.813 163.656C280.813 238.188 220.344 299.125 145.344 299.125C70.8126 299.125 9.87501 238.188 9.87501 163.656C9.87501 88.6563 70.8126 28.1875 145.344 28.1875C148.156 28.1875 150.031 26.3125 150.031 23.5C150.031 20.6875 148.156 18.8125 145.344 18.8125C65.6563 18.8125 0.5 83.5 0.5 163.656C0.5 243.344 65.6563 308.5 145.344 308.5C225.031 308.5 290.188 243.344 290.188 163.656C290.188 160.844 288.313 158.969 285.5 158.969Z" fill="#2C2932"/>
<path d="M36.5935 163.657C36.5935 103.657 85.3436 54.9067 145.344 54.9067C148.156 54.9067 150.031 53.0317 150.031 50.2192C150.031 47.4067 148.156 45.5317 145.344 45.5317C80.1873 45.5317 27.2185 98.5005 27.2185 163.657C27.2185 228.813 80.1873 281.782 145.344 281.782C210.5 281.782 263.469 228.813 263.469 163.657C263.469 160.844 261.594 158.969 258.781 158.969C255.969 158.969 254.094 160.844 254.094 163.657C254.094 223.657 205.344 272.407 145.344 272.407C85.3436 272.407 36.5935 223.657 36.5935 163.657Z" fill="#2C2932"/>
<path d="M227.875 163.656C227.875 162.364 228.304 161.325 229.018 160.611C229.732 159.897 230.77 159.469 232.063 159.469C234.163 159.469 236.25 161.152 236.25 163.656C236.25 214.004 195.226 254.563 145.344 254.563C94.9966 254.563 54.4375 213.538 54.4375 163.656C54.4375 113.309 95.462 72.75 145.344 72.75C146.636 72.75 147.675 73.1787 148.389 73.8926C149.103 74.6065 149.531 75.6449 149.531 76.9375C149.531 78.2301 149.103 79.2685 148.389 79.9824C147.675 80.6963 146.636 81.125 145.344 81.125C99.597 81.125 62.8125 118.382 62.8125 163.656C62.8125 209.403 100.069 246.188 145.344 246.188C191.091 246.188 227.875 208.931 227.875 163.656Z" fill="#2C2932" stroke="#FFD0D0"/>
<path d="M90.5 163.656C90.5 133.188 115.344 108.813 145.344 108.813C148.156 108.813 150.031 106.938 150.031 104.125C150.031 101.313 148.156 99.4375 145.344 99.4375C109.719 99.4375 81.125 128.5 81.125 163.656C81.125 199.281 110.188 227.875 145.344 227.875C180.969 227.875 209.563 198.813 209.563 163.656C209.563 160.844 207.688 158.969 204.875 158.969C202.063 158.969 200.188 160.844 200.188 163.656C200.188 194.125 175.344 218.5 145.344 218.5C115.344 218.5 90.5 194.125 90.5 163.656Z" fill="#2C2932"/>
<path d="M439.275 188.18L407.859 270.5H386.019L355.275 188.18H370.395L395.595 259.076H398.955L424.155 188.18H439.275ZM558.483 270.5H499.683V211.7L511.443 199.94H499.683V188.18H558.483V199.94H513.123V233.54L523.203 223.46H558.483V235.22H513.123V258.74H558.483V270.5ZM694.563 270.332H671.043L639.123 200.612H632.403L637.443 209.012V270.332H624.003V188.012H647.691L679.443 257.732H686.163L681.123 249.332V188.012H694.563V270.332ZM812.938 199.94H788.578V270.5H775.138V199.94H750.778V188.18H812.938V199.94ZM939.758 270.5H926.318V260.42L916.238 270.5H880.958C877.71 270.5 874.91 269.38 872.558 267.14C870.318 264.788 869.198 261.988 869.198 258.74V188.18H882.638V258.74H926.318V188.18H939.758V270.5ZM1082.49 270.5H1065.36L1030.41 235.22H1067.37V199.94H1023.69V270.5H1010.25V211.532L1022.01 199.94H1010.25V188.18H1069.05C1072.19 188.18 1074.93 189.356 1077.28 191.708C1079.64 194.06 1080.81 196.804 1080.81 199.94V231.86C1080.81 240.82 1076.89 245.3 1069.05 245.3H1058.97V247.148L1082.49 270.5ZM1206.01 270.5H1147.21V211.7L1158.97 199.94H1147.21V188.18H1206.01V199.94H1160.65V233.54L1170.73 223.46H1206.01V235.22H1160.65V258.74H1206.01V270.5ZM1326.97 258.74C1326.97 261.988 1325.79 264.788 1323.44 267.14C1321.2 269.38 1318.45 270.5 1315.21 270.5H1268.17V258.74H1313.53V235.22H1279.93C1276.68 235.22 1273.88 234.1 1271.53 231.86C1269.29 229.508 1268.17 226.708 1268.17 223.46V199.94C1268.17 196.692 1269.29 193.948 1271.53 191.708C1273.88 189.356 1276.68 188.18 1279.93 188.18H1326.97V199.94H1281.61V223.46H1315.21C1318.45 223.46 1321.2 224.636 1323.44 226.988C1325.79 229.228 1326.97 231.972 1326.97 235.22V258.74Z" fill="#2C2932"/>
<path d="M295.813 17.875H205.344C202.531 17.875 200.656 16 200.656 13.1875C200.656 10.375 202.531 8.5 205.344 8.5H295.813C298.625 8.5 300.5 10.375 300.5 13.1875C300.5 16 298.625 17.875 295.813 17.875Z" fill="#2C2932"/>
<path d="M237.688 34.75H295.813C298.625 34.75 300.5 36.625 300.5 39.4375C300.5 42.25 298.625 44.125 295.813 44.125H237.688C234.875 44.125 233 42.25 233 39.4375C233 36.625 234.875 34.75 237.688 34.75Z" fill="#2C2932"/>
<path d="M210.5 61H295.813C298.625 61 300.5 62.875 300.5 65.6875C300.5 68.5 298.625 70.375 295.813 70.375H210.5C207.687 70.375 205.812 68.5 205.812 65.6875C205.812 62.875 207.687 61 210.5 61Z" fill="#2C2932"/>
<path d="M224.094 87.2501H295.813C298.625 87.2501 300.5 89.1251 300.5 91.9376C300.5 94.7501 298.625 96.6251 295.813 96.6251H224.094C221.281 96.6251 219.406 94.7501 219.406 91.9376C219.406 89.1251 221.281 87.2501 224.094 87.2501Z" fill="#2C2932"/>
<path d="M237.688 113.5H295.813C298.625 113.5 300.5 115.375 300.5 118.188C300.5 121 298.625 122.875 295.813 122.875H237.688C234.875 122.875 233 121 233 118.188C233 115.375 234.875 113.5 237.688 113.5Z" fill="#2C2932"/>
<path d="M272.431 123.05C269.81 123.05 268.5 121.553 268.5 118.559V10.4411C268.5 7.4469 269.81 5.9498 272.431 5.9498H310.404C325.552 5.9498 336.506 8.88956 343.267 14.7691C350.081 20.6486 353.488 28.4063 353.488 38.0422C353.488 46.5348 350.736 53.6664 345.233 59.4371C339.782 65.2077 331.998 68.5286 321.883 69.3996V69.5629C327.229 73.7004 330.767 76.8579 332.496 79.0355C334.226 81.1586 336.165 84.044 338.314 87.6914L356.082 117.661C358.231 121.254 357.759 123.05 354.667 123.05H345.704C343.241 123.05 341.407 121.989 340.201 119.865L323.848 90.7129C321.49 86.521 318.109 82.4108 313.706 78.3822C309.304 74.3536 303.826 72.3394 297.275 72.3394H283.595V118.559C283.595 121.553 282.285 123.05 279.664 123.05H272.431ZM283.595 58.9471H306.316C316.537 58.9471 324.399 57.5589 329.902 54.7825C335.405 51.9516 338.157 46.0448 338.157 37.0622C338.157 30.2028 335.641 25.5482 330.61 23.0984C325.578 20.5942 318.738 19.342 310.09 19.342H283.595V58.9471Z" fill="#2C2932"/>
<path d="M401.348 123.05C398.728 123.05 397.417 121.553 397.417 118.559V10.4411C397.417 7.4469 398.728 5.9498 401.348 5.9498H470.14C473.023 5.9498 474.465 7.1747 474.465 9.6245V15.6673C474.465 18.1171 473.023 19.342 470.14 19.342H412.512V55.5991H465.423C468.306 55.5991 469.747 56.824 469.747 59.2738V65.3166C469.747 67.7664 468.306 68.9913 465.423 68.9913H412.512V109.658H472.499C475.382 109.658 476.823 110.883 476.823 113.333V119.376C476.823 121.825 475.382 123.05 472.499 123.05H401.348Z" fill="#2C2932"/>
<path d="M510.925 123.05C508.2 123.05 507.492 121.254 508.802 117.661L547.955 10.9311C549.161 7.61022 550.89 5.9498 553.144 5.9498H564.151C566.404 5.9498 568.134 7.61022 569.34 10.9311L608.492 117.661C609.802 121.254 609.095 123.05 606.369 123.05H598.35C595.572 123.05 593.685 121.716 592.69 119.049L582.862 92.0194H534.432L524.605 119.049C523.609 121.716 521.722 123.05 518.944 123.05H510.925ZM539.385 78.6272H577.909L565.88 45.9632C564.78 42.9145 563.679 39.5393 562.578 35.8373C561.53 32.1354 560.272 26.882 558.805 20.077H558.49C557.022 26.882 555.738 32.1354 554.638 35.8373C553.589 39.5393 552.515 42.9145 551.414 45.9632L539.385 78.6272Z" fill="#2C2932"/>
<path d="M646.761 123.05C644.14 123.05 642.83 121.553 642.83 118.559V10.4411C642.83 7.4469 644.14 5.9498 646.761 5.9498H653.994C656.615 5.9498 657.925 7.4469 657.925 10.4411V109.658H710.05C712.933 109.658 714.374 110.883 714.374 113.333V119.376C714.374 121.825 712.933 123.05 710.05 123.05H646.761Z" fill="#2C2932"/>
<path d="M751.149 114.231C748.371 111.618 747.637 109.331 748.948 107.371L753.036 101.247C754.451 99.1238 756.731 99.2871 759.876 101.737C764.016 104.949 768.314 107.589 772.769 109.658C777.277 111.727 782.728 112.761 789.122 112.761C793.839 112.761 797.823 112.026 801.072 110.556C804.322 109.086 806.917 106.99 808.856 104.268C810.848 101.492 811.843 98.1439 811.843 94.2242C811.843 91.3934 811.424 88.7802 810.585 86.3849C809.799 83.9351 808.515 81.8936 806.733 80.2604C804.951 78.6272 803.09 77.3478 801.151 76.4224C797.954 74.898 793.158 73.1287 786.764 71.1145C780.422 69.1002 774.866 66.9226 770.096 64.5817C765.379 62.2407 761.605 59.4099 758.775 56.089C755.997 52.7682 754.137 49.3657 753.193 45.8815C752.302 42.3429 751.857 38.3144 751.857 33.7959C751.857 26.882 753.796 20.9208 757.674 15.9123C761.553 10.9038 766.296 7.583 771.905 5.9498C777.565 4.3166 783.304 3.5 789.122 3.5C795.779 3.5 801.57 4.39826 806.497 6.19478C811.424 7.9913 815.827 10.3322 819.705 13.2175C822.431 15.2318 823.06 17.355 821.592 19.587L817.583 25.5482C816.377 27.3447 814.018 26.9636 810.507 24.405C807.834 22.4451 804.558 20.6214 800.679 18.9337C796.853 17.1917 793.053 16.3206 789.28 16.3206C784.458 16.3206 780.448 16.9195 777.251 18.1171C774.054 19.2604 771.538 21.2202 769.703 23.9967C767.869 26.7731 766.952 29.9851 766.952 33.6325C766.952 35.919 767.161 38.0422 767.581 40.002C768 41.9074 769.074 43.8672 770.804 45.8815C772.534 47.8958 774.63 49.4473 777.093 50.5361C780.396 52.006 785.506 53.7481 792.424 55.7624C799.395 57.7222 805.475 60.1448 810.664 63.0301C815.486 65.6977 818.945 68.5013 821.042 71.4411C823.191 74.3264 824.842 77.4839 825.995 80.9137C827.2 84.2889 827.803 88.0997 827.803 92.3461C827.803 100.077 825.89 106.528 822.064 111.699C818.238 116.871 813.704 120.464 808.463 122.479C803.221 124.493 796.644 125.5 788.729 125.5C779.242 125.5 771.38 124.357 765.143 122.07C758.906 119.784 754.241 117.171 751.149 114.231Z" fill="#2C2932"/>
<path d="M860.883 64.5C860.883 45.446 865.417 30.5295 874.484 19.7503C883.604 8.91678 896.681 3.5 913.716 3.5C923.674 3.5 931.903 5.2693 938.402 8.8079C944.901 12.2921 949.566 17.0828 952.396 23.1801C953.864 26.3376 953.628 28.5152 951.689 29.7129L945.478 33.4692C943.381 34.7213 941.521 33.687 939.896 30.3661C938.166 26.9364 935.336 23.7245 931.405 20.7303C927.474 17.7361 921.84 16.239 914.502 16.239C901.398 16.239 891.859 20.4853 885.884 28.9779C879.961 37.4161 877 49.2568 877 64.5C877 79.7432 879.961 91.6111 885.884 100.104C891.859 108.542 901.398 112.761 914.502 112.761C922.049 112.761 928.077 110.965 932.584 107.371C937.144 103.778 940.446 100.022 942.49 96.1024C944.115 92.9449 946.002 91.9922 948.151 93.2443L954.676 97.0823C956.563 98.2256 956.72 100.403 955.148 103.615C952.056 109.876 947.024 115.102 940.053 119.294C933.082 123.431 924.303 125.5 913.716 125.5C896.681 125.5 883.604 120.11 874.484 109.331C865.417 98.4978 860.883 83.554 860.883 64.5Z" fill="#2C2932"/>
<path d="M1000.49 123.05C997.872 123.05 996.562 121.553 996.562 118.559V10.4411C996.562 7.4469 997.872 5.9498 1000.49 5.9498H1007.73C1010.35 5.9498 1011.66 7.4469 1011.66 10.4411V55.4357H1066.53V10.4411C1066.53 7.4469 1067.84 5.9498 1070.46 5.9498H1077.7C1080.32 5.9498 1081.63 7.4469 1081.63 10.4411V118.559C1081.63 121.553 1080.32 123.05 1077.7 123.05H1070.46C1067.84 123.05 1066.53 121.553 1066.53 118.559V68.828H1011.66V118.559C1011.66 121.553 1010.35 123.05 1007.73 123.05H1000.49Z" fill="#2C2932"/>
<path d="M1121.55 64.5C1121.55 45.446 1126.06 30.5295 1135.07 19.7503C1144.14 8.91678 1157.19 3.5 1174.22 3.5C1191.26 3.5 1204.28 8.91678 1213.3 19.7503C1222.36 30.5295 1226.9 45.446 1226.9 64.5C1226.9 83.554 1222.36 98.4978 1213.3 109.331C1204.28 120.11 1191.26 125.5 1174.22 125.5C1157.19 125.5 1144.14 120.11 1135.07 109.331C1126.06 98.4978 1121.55 83.554 1121.55 64.5ZM1137.67 64.5C1137.67 79.7432 1140.68 91.6111 1146.71 100.104C1152.73 108.542 1161.91 112.761 1174.22 112.761C1186.54 112.761 1195.71 108.542 1201.74 100.104C1207.77 91.6111 1210.78 79.7432 1210.78 64.5C1210.78 49.2568 1207.77 37.4161 1201.74 28.9779C1195.71 20.4853 1186.54 16.239 1174.22 16.239C1161.91 16.239 1152.73 20.4853 1146.71 28.9779C1140.68 37.4161 1137.67 49.2568 1137.67 64.5Z" fill="#2C2932"/>
<path d="M1260.69 64.5C1260.69 45.446 1265.19 30.5295 1274.21 19.7503C1283.28 8.91678 1296.33 3.5 1313.36 3.5C1330.4 3.5 1343.42 8.91678 1352.44 19.7503C1361.5 30.5295 1366.04 45.446 1366.04 64.5C1366.04 83.554 1361.5 98.4978 1352.44 109.331C1343.42 120.11 1330.4 125.5 1313.36 125.5C1296.33 125.5 1283.28 120.11 1274.21 109.331C1265.19 98.4978 1260.69 83.554 1260.69 64.5ZM1276.8 64.5C1276.8 79.7432 1279.82 91.6111 1285.84 100.104C1291.87 108.542 1301.04 112.761 1313.36 112.761C1325.68 112.761 1334.85 108.542 1340.88 100.104C1346.91 91.6111 1349.92 79.7432 1349.92 64.5C1349.92 49.2568 1346.91 37.4161 1340.88 28.9779C1334.85 20.4853 1325.68 16.239 1313.36 16.239C1301.04 16.239 1291.87 20.4853 1285.84 28.9779C1279.82 37.4161 1276.8 49.2568 1276.8 64.5Z" fill="#2C2932"/>
<path d="M1409.89 123.05C1407.27 123.05 1405.96 121.553 1405.96 118.559V10.4411C1405.96 7.4469 1407.27 5.9498 1409.89 5.9498H1417.12C1419.74 5.9498 1421.05 7.4469 1421.05 10.4411V109.658H1473.18C1476.06 109.658 1477.5 110.883 1477.5 113.333V119.376C1477.5 121.825 1476.06 123.05 1473.18 123.05H1409.89Z" fill="#2C2932"/>
<mask id="path-8-outside-1_14_141" maskUnits="userSpaceOnUse" x="269.5" y="0.5" width="1215" height="128" fill="black">
<rect fill="white" x="269.5" y="0.5" width="1215" height="128"/>
<path d="M276.431 123.05C273.81 123.05 272.5 121.553 272.5 118.559V10.4411C272.5 7.4469 273.81 5.9498 276.431 5.9498H314.404C329.552 5.9498 340.506 8.88956 347.267 14.7691C354.081 20.6486 357.488 28.4063 357.488 38.0422C357.488 46.5348 354.736 53.6664 349.233 59.4371C343.782 65.2077 335.998 68.5286 325.883 69.3996V69.5629C331.229 73.7004 334.767 76.8579 336.496 79.0355C338.226 81.1586 340.165 84.044 342.314 87.6914L360.082 117.661C362.231 121.254 361.759 123.05 358.667 123.05H349.704C347.241 123.05 345.407 121.989 344.201 119.865L327.848 90.7129C325.49 86.521 322.109 82.4108 317.706 78.3822C313.304 74.3536 307.826 72.3394 301.275 72.3394H287.595V118.559C287.595 121.553 286.285 123.05 283.664 123.05H276.431ZM287.595 58.9471H310.316C320.537 58.9471 328.399 57.5589 333.902 54.7825C339.405 51.9516 342.157 46.0448 342.157 37.0622C342.157 30.2028 339.641 25.5482 334.61 23.0984C329.578 20.5942 322.738 19.342 314.09 19.342H287.595V58.9471Z"/>
<path d="M405.348 123.05C402.728 123.05 401.417 121.553 401.417 118.559V10.4411C401.417 7.4469 402.728 5.9498 405.348 5.9498H474.14C477.023 5.9498 478.465 7.1747 478.465 9.6245V15.6673C478.465 18.1171 477.023 19.342 474.14 19.342H416.512V55.5991H469.423C472.306 55.5991 473.747 56.824 473.747 59.2738V65.3166C473.747 67.7664 472.306 68.9913 469.423 68.9913H416.512V109.658H476.499C479.382 109.658 480.823 110.883 480.823 113.333V119.376C480.823 121.825 479.382 123.05 476.499 123.05H405.348Z"/>
<path d="M514.925 123.05C512.2 123.05 511.492 121.254 512.802 117.661L551.955 10.9311C553.161 7.61022 554.89 5.9498 557.144 5.9498H568.151C570.404 5.9498 572.134 7.61022 573.34 10.9311L612.492 117.661C613.802 121.254 613.095 123.05 610.369 123.05H602.35C599.572 123.05 597.685 121.716 596.69 119.049L586.862 92.0194H538.432L528.605 119.049C527.609 121.716 525.722 123.05 522.944 123.05H514.925ZM543.385 78.6272H581.909L569.88 45.9632C568.78 42.9145 567.679 39.5393 566.578 35.8373C565.53 32.1354 564.272 26.882 562.805 20.077H562.49C561.022 26.882 559.738 32.1354 558.638 35.8373C557.589 39.5393 556.515 42.9145 555.414 45.9632L543.385 78.6272Z"/>
<path d="M650.761 123.05C648.14 123.05 646.83 121.553 646.83 118.559V10.4411C646.83 7.4469 648.14 5.9498 650.761 5.9498H657.994C660.615 5.9498 661.925 7.4469 661.925 10.4411V109.658H714.05C716.933 109.658 718.374 110.883 718.374 113.333V119.376C718.374 121.825 716.933 123.05 714.05 123.05H650.761Z"/>
<path d="M755.149 114.231C752.371 111.618 751.637 109.331 752.948 107.371L757.036 101.247C758.451 99.1238 760.731 99.2871 763.876 101.737C768.016 104.949 772.314 107.589 776.769 109.658C781.277 111.727 786.728 112.761 793.122 112.761C797.839 112.761 801.823 112.026 805.072 110.556C808.322 109.086 810.917 106.99 812.856 104.268C814.848 101.492 815.843 98.1439 815.843 94.2242C815.843 91.3934 815.424 88.7802 814.585 86.3849C813.799 83.9351 812.515 81.8936 810.733 80.2604C808.951 78.6272 807.09 77.3478 805.151 76.4224C801.954 74.898 797.158 73.1287 790.764 71.1145C784.422 69.1002 778.866 66.9226 774.096 64.5817C769.379 62.2407 765.605 59.4099 762.775 56.089C759.997 52.7682 758.137 49.3657 757.193 45.8815C756.302 42.3429 755.857 38.3144 755.857 33.7959C755.857 26.882 757.796 20.9208 761.674 15.9123C765.553 10.9038 770.296 7.583 775.905 5.9498C781.565 4.3166 787.304 3.5 793.122 3.5C799.779 3.5 805.57 4.39826 810.497 6.19478C815.424 7.9913 819.827 10.3322 823.705 13.2175C826.431 15.2318 827.06 17.355 825.592 19.587L821.583 25.5482C820.377 27.3447 818.018 26.9636 814.507 24.405C811.834 22.4451 808.558 20.6214 804.679 18.9337C800.853 17.1917 797.053 16.3206 793.28 16.3206C788.458 16.3206 784.448 16.9195 781.251 18.1171C778.054 19.2604 775.538 21.2202 773.703 23.9967C771.869 26.7731 770.952 29.9851 770.952 33.6325C770.952 35.919 771.161 38.0422 771.581 40.002C772 41.9074 773.074 43.8672 774.804 45.8815C776.534 47.8958 778.63 49.4473 781.093 50.5361C784.396 52.006 789.506 53.7481 796.424 55.7624C803.395 57.7222 809.475 60.1448 814.664 63.0301C819.486 65.6977 822.945 68.5013 825.042 71.4411C827.191 74.3264 828.842 77.4839 829.995 80.9137C831.2 84.2889 831.803 88.0997 831.803 92.3461C831.803 100.077 829.89 106.528 826.064 111.699C822.238 116.871 817.704 120.464 812.463 122.479C807.221 124.493 800.644 125.5 792.729 125.5C783.242 125.5 775.38 124.357 769.143 122.07C762.906 119.784 758.241 117.171 755.149 114.231Z"/>
<path d="M864.883 64.5C864.883 45.446 869.417 30.5295 878.484 19.7503C887.604 8.91678 900.681 3.5 917.716 3.5C927.674 3.5 935.903 5.2693 942.402 8.8079C948.901 12.2921 953.566 17.0828 956.396 23.1801C957.864 26.3376 957.628 28.5152 955.689 29.7129L949.478 33.4692C947.381 34.7213 945.521 33.687 943.896 30.3661C942.166 26.9364 939.336 23.7245 935.405 20.7303C931.474 17.7361 925.84 16.239 918.502 16.239C905.398 16.239 895.859 20.4853 889.884 28.9779C883.961 37.4161 881 49.2568 881 64.5C881 79.7432 883.961 91.6111 889.884 100.104C895.859 108.542 905.398 112.761 918.502 112.761C926.049 112.761 932.077 110.965 936.584 107.371C941.144 103.778 944.446 100.022 946.49 96.1024C948.115 92.9449 950.002 91.9922 952.151 93.2443L958.676 97.0823C960.563 98.2256 960.72 100.403 959.148 103.615C956.056 109.876 951.024 115.102 944.053 119.294C937.082 123.431 928.303 125.5 917.716 125.5C900.681 125.5 887.604 120.11 878.484 109.331C869.417 98.4978 864.883 83.554 864.883 64.5Z"/>
<path d="M1004.49 123.05C1001.87 123.05 1000.56 121.553 1000.56 118.559V10.4411C1000.56 7.4469 1001.87 5.9498 1004.49 5.9498H1011.73C1014.35 5.9498 1015.66 7.4469 1015.66 10.4411V55.4357H1070.53V10.4411C1070.53 7.4469 1071.84 5.9498 1074.46 5.9498H1081.7C1084.32 5.9498 1085.63 7.4469 1085.63 10.4411V118.559C1085.63 121.553 1084.32 123.05 1081.7 123.05H1074.46C1071.84 123.05 1070.53 121.553 1070.53 118.559V68.828H1015.66V118.559C1015.66 121.553 1014.35 123.05 1011.73 123.05H1004.49Z"/>
<path d="M1125.55 64.5C1125.55 45.446 1130.06 30.5295 1139.07 19.7503C1148.14 8.91678 1161.19 3.5 1178.22 3.5C1195.26 3.5 1208.28 8.91678 1217.3 19.7503C1226.36 30.5295 1230.9 45.446 1230.9 64.5C1230.9 83.554 1226.36 98.4978 1217.3 109.331C1208.28 120.11 1195.26 125.5 1178.22 125.5C1161.19 125.5 1148.14 120.11 1139.07 109.331C1130.06 98.4978 1125.55 83.554 1125.55 64.5ZM1141.67 64.5C1141.67 79.7432 1144.68 91.6111 1150.71 100.104C1156.73 108.542 1165.91 112.761 1178.22 112.761C1190.54 112.761 1199.71 108.542 1205.74 100.104C1211.77 91.6111 1214.78 79.7432 1214.78 64.5C1214.78 49.2568 1211.77 37.4161 1205.74 28.9779C1199.71 20.4853 1190.54 16.239 1178.22 16.239C1165.91 16.239 1156.73 20.4853 1150.71 28.9779C1144.68 37.4161 1141.67 49.2568 1141.67 64.5Z"/>
<path d="M1264.69 64.5C1264.69 45.446 1269.19 30.5295 1278.21 19.7503C1287.28 8.91678 1300.33 3.5 1317.36 3.5C1334.4 3.5 1347.42 8.91678 1356.44 19.7503C1365.5 30.5295 1370.04 45.446 1370.04 64.5C1370.04 83.554 1365.5 98.4978 1356.44 109.331C1347.42 120.11 1334.4 125.5 1317.36 125.5C1300.33 125.5 1287.28 120.11 1278.21 109.331C1269.19 98.4978 1264.69 83.554 1264.69 64.5ZM1280.8 64.5C1280.8 79.7432 1283.82 91.6111 1289.84 100.104C1295.87 108.542 1305.04 112.761 1317.36 112.761C1329.68 112.761 1338.85 108.542 1344.88 100.104C1350.91 91.6111 1353.92 79.7432 1353.92 64.5C1353.92 49.2568 1350.91 37.4161 1344.88 28.9779C1338.85 20.4853 1329.68 16.239 1317.36 16.239C1305.04 16.239 1295.87 20.4853 1289.84 28.9779C1283.82 37.4161 1280.8 49.2568 1280.8 64.5Z"/>
<path d="M1413.89 123.05C1411.27 123.05 1409.96 121.553 1409.96 118.559V10.4411C1409.96 7.4469 1411.27 5.9498 1413.89 5.9498H1421.12C1423.74 5.9498 1425.05 7.4469 1425.05 10.4411V109.658H1477.18C1480.06 109.658 1481.5 110.883 1481.5 113.333V119.376C1481.5 121.825 1480.06 123.05 1477.18 123.05H1413.89Z"/>
</mask>
<path d="M276.431 123.05C273.81 123.05 272.5 121.553 272.5 118.559V10.4411C272.5 7.4469 273.81 5.9498 276.431 5.9498H314.404C329.552 5.9498 340.506 8.88956 347.267 14.7691C354.081 20.6486 357.488 28.4063 357.488 38.0422C357.488 46.5348 354.736 53.6664 349.233 59.4371C343.782 65.2077 335.998 68.5286 325.883 69.3996V69.5629C331.229 73.7004 334.767 76.8579 336.496 79.0355C338.226 81.1586 340.165 84.044 342.314 87.6914L360.082 117.661C362.231 121.254 361.759 123.05 358.667 123.05H349.704C347.241 123.05 345.407 121.989 344.201 119.865L327.848 90.7129C325.49 86.521 322.109 82.4108 317.706 78.3822C313.304 74.3536 307.826 72.3394 301.275 72.3394H287.595V118.559C287.595 121.553 286.285 123.05 283.664 123.05H276.431ZM287.595 58.9471H310.316C320.537 58.9471 328.399 57.5589 333.902 54.7825C339.405 51.9516 342.157 46.0448 342.157 37.0622C342.157 30.2028 339.641 25.5482 334.61 23.0984C329.578 20.5942 322.738 19.342 314.09 19.342H287.595V58.9471Z" fill="#2C2932"/>
<path d="M405.348 123.05C402.728 123.05 401.417 121.553 401.417 118.559V10.4411C401.417 7.4469 402.728 5.9498 405.348 5.9498H474.14C477.023 5.9498 478.465 7.1747 478.465 9.6245V15.6673C478.465 18.1171 477.023 19.342 474.14 19.342H416.512V55.5991H469.423C472.306 55.5991 473.747 56.824 473.747 59.2738V65.3166C473.747 67.7664 472.306 68.9913 469.423 68.9913H416.512V109.658H476.499C479.382 109.658 480.823 110.883 480.823 113.333V119.376C480.823 121.825 479.382 123.05 476.499 123.05H405.348Z" fill="#2C2932"/>
<path d="M514.925 123.05C512.2 123.05 511.492 121.254 512.802 117.661L551.955 10.9311C553.161 7.61022 554.89 5.9498 557.144 5.9498H568.151C570.404 5.9498 572.134 7.61022 573.34 10.9311L612.492 117.661C613.802 121.254 613.095 123.05 610.369 123.05H602.35C599.572 123.05 597.685 121.716 596.69 119.049L586.862 92.0194H538.432L528.605 119.049C527.609 121.716 525.722 123.05 522.944 123.05H514.925ZM543.385 78.6272H581.909L569.88 45.9632C568.78 42.9145 567.679 39.5393 566.578 35.8373C565.53 32.1354 564.272 26.882 562.805 20.077H562.49C561.022 26.882 559.738 32.1354 558.638 35.8373C557.589 39.5393 556.515 42.9145 555.414 45.9632L543.385 78.6272Z" fill="#2C2932"/>
<path d="M650.761 123.05C648.14 123.05 646.83 121.553 646.83 118.559V10.4411C646.83 7.4469 648.14 5.9498 650.761 5.9498H657.994C660.615 5.9498 661.925 7.4469 661.925 10.4411V109.658H714.05C716.933 109.658 718.374 110.883 718.374 113.333V119.376C718.374 121.825 716.933 123.05 714.05 123.05H650.761Z" fill="#2C2932"/>
<path d="M755.149 114.231C752.371 111.618 751.637 109.331 752.948 107.371L757.036 101.247C758.451 99.1238 760.731 99.2871 763.876 101.737C768.016 104.949 772.314 107.589 776.769 109.658C781.277 111.727 786.728 112.761 793.122 112.761C797.839 112.761 801.823 112.026 805.072 110.556C808.322 109.086 810.917 106.99 812.856 104.268C814.848 101.492 815.843 98.1439 815.843 94.2242C815.843 91.3934 815.424 88.7802 814.585 86.3849C813.799 83.9351 812.515 81.8936 810.733 80.2604C808.951 78.6272 807.09 77.3478 805.151 76.4224C801.954 74.898 797.158 73.1287 790.764 71.1145C784.422 69.1002 778.866 66.9226 774.096 64.5817C769.379 62.2407 765.605 59.4099 762.775 56.089C759.997 52.7682 758.137 49.3657 757.193 45.8815C756.302 42.3429 755.857 38.3144 755.857 33.7959C755.857 26.882 757.796 20.9208 761.674 15.9123C765.553 10.9038 770.296 7.583 775.905 5.9498C781.565 4.3166 787.304 3.5 793.122 3.5C799.779 3.5 805.57 4.39826 810.497 6.19478C815.424 7.9913 819.827 10.3322 823.705 13.2175C826.431 15.2318 827.06 17.355 825.592 19.587L821.583 25.5482C820.377 27.3447 818.018 26.9636 814.507 24.405C811.834 22.4451 808.558 20.6214 804.679 18.9337C800.853 17.1917 797.053 16.3206 793.28 16.3206C788.458 16.3206 784.448 16.9195 781.251 18.1171C778.054 19.2604 775.538 21.2202 773.703 23.9967C771.869 26.7731 770.952 29.9851 770.952 33.6325C770.952 35.919 771.161 38.0422 771.581 40.002C772 41.9074 773.074 43.8672 774.804 45.8815C776.534 47.8958 778.63 49.4473 781.093 50.5361C784.396 52.006 789.506 53.7481 796.424 55.7624C803.395 57.7222 809.475 60.1448 814.664 63.0301C819.486 65.6977 822.945 68.5013 825.042 71.4411C827.191 74.3264 828.842 77.4839 829.995 80.9137C831.2 84.2889 831.803 88.0997 831.803 92.3461C831.803 100.077 829.89 106.528 826.064 111.699C822.238 116.871 817.704 120.464 812.463 122.479C807.221 124.493 800.644 125.5 792.729 125.5C783.242 125.5 775.38 124.357 769.143 122.07C762.906 119.784 758.241 117.171 755.149 114.231Z" fill="#2C2932"/>
<path d="M864.883 64.5C864.883 45.446 869.417 30.5295 878.484 19.7503C887.604 8.91678 900.681 3.5 917.716 3.5C927.674 3.5 935.903 5.2693 942.402 8.8079C948.901 12.2921 953.566 17.0828 956.396 23.1801C957.864 26.3376 957.628 28.5152 955.689 29.7129L949.478 33.4692C947.381 34.7213 945.521 33.687 943.896 30.3661C942.166 26.9364 939.336 23.7245 935.405 20.7303C931.474 17.7361 925.84 16.239 918.502 16.239C905.398 16.239 895.859 20.4853 889.884 28.9779C883.961 37.4161 881 49.2568 881 64.5C881 79.7432 883.961 91.6111 889.884 100.104C895.859 108.542 905.398 112.761 918.502 112.761C926.049 112.761 932.077 110.965 936.584 107.371C941.144 103.778 944.446 100.022 946.49 96.1024C948.115 92.9449 950.002 91.9922 952.151 93.2443L958.676 97.0823C960.563 98.2256 960.72 100.403 959.148 103.615C956.056 109.876 951.024 115.102 944.053 119.294C937.082 123.431 928.303 125.5 917.716 125.5C900.681 125.5 887.604 120.11 878.484 109.331C869.417 98.4978 864.883 83.554 864.883 64.5Z" fill="#2C2932"/>
<path d="M1004.49 123.05C1001.87 123.05 1000.56 121.553 1000.56 118.559V10.4411C1000.56 7.4469 1001.87 5.9498 1004.49 5.9498H1011.73C1014.35 5.9498 1015.66 7.4469 1015.66 10.4411V55.4357H1070.53V10.4411C1070.53 7.4469 1071.84 5.9498 1074.46 5.9498H1081.7C1084.32 5.9498 1085.63 7.4469 1085.63 10.4411V118.559C1085.63 121.553 1084.32 123.05 1081.7 123.05H1074.46C1071.84 123.05 1070.53 121.553 1070.53 118.559V68.828H1015.66V118.559C1015.66 121.553 1014.35 123.05 1011.73 123.05H1004.49Z" fill="#2C2932"/>
<path d="M1125.55 64.5C1125.55 45.446 1130.06 30.5295 1139.07 19.7503C1148.14 8.91678 1161.19 3.5 1178.22 3.5C1195.26 3.5 1208.28 8.91678 1217.3 19.7503C1226.36 30.5295 1230.9 45.446 1230.9 64.5C1230.9 83.554 1226.36 98.4978 1217.3 109.331C1208.28 120.11 1195.26 125.5 1178.22 125.5C1161.19 125.5 1148.14 120.11 1139.07 109.331C1130.06 98.4978 1125.55 83.554 1125.55 64.5ZM1141.67 64.5C1141.67 79.7432 1144.68 91.6111 1150.71 100.104C1156.73 108.542 1165.91 112.761 1178.22 112.761C1190.54 112.761 1199.71 108.542 1205.74 100.104C1211.77 91.6111 1214.78 79.7432 1214.78 64.5C1214.78 49.2568 1211.77 37.4161 1205.74 28.9779C1199.71 20.4853 1190.54 16.239 1178.22 16.239C1165.91 16.239 1156.73 20.4853 1150.71 28.9779C1144.68 37.4161 1141.67 49.2568 1141.67 64.5Z" fill="#2C2932"/>
<path d="M1264.69 64.5C1264.69 45.446 1269.19 30.5295 1278.21 19.7503C1287.28 8.91678 1300.33 3.5 1317.36 3.5C1334.4 3.5 1347.42 8.91678 1356.44 19.7503C1365.5 30.5295 1370.04 45.446 1370.04 64.5C1370.04 83.554 1365.5 98.4978 1356.44 109.331C1347.42 120.11 1334.4 125.5 1317.36 125.5C1300.33 125.5 1287.28 120.11 1278.21 109.331C1269.19 98.4978 1264.69 83.554 1264.69 64.5ZM1280.8 64.5C1280.8 79.7432 1283.82 91.6111 1289.84 100.104C1295.87 108.542 1305.04 112.761 1317.36 112.761C1329.68 112.761 1338.85 108.542 1344.88 100.104C1350.91 91.6111 1353.92 79.7432 1353.92 64.5C1353.92 49.2568 1350.91 37.4161 1344.88 28.9779C1338.85 20.4853 1329.68 16.239 1317.36 16.239C1305.04 16.239 1295.87 20.4853 1289.84 28.9779C1283.82 37.4161 1280.8 49.2568 1280.8 64.5Z" fill="#2C2932"/>
<path d="M1413.89 123.05C1411.27 123.05 1409.96 121.553 1409.96 118.559V10.4411C1409.96 7.4469 1411.27 5.9498 1413.89 5.9498H1421.12C1423.74 5.9498 1425.05 7.4469 1425.05 10.4411V109.658H1477.18C1480.06 109.658 1481.5 110.883 1481.5 113.333V119.376C1481.5 121.825 1480.06 123.05 1477.18 123.05H1413.89Z" fill="#2C2932"/>
<path d="M276.431 123.05C273.81 123.05 272.5 121.553 272.5 118.559V10.4411C272.5 7.4469 273.81 5.9498 276.431 5.9498H314.404C329.552 5.9498 340.506 8.88956 347.267 14.7691C354.081 20.6486 357.488 28.4063 357.488 38.0422C357.488 46.5348 354.736 53.6664 349.233 59.4371C343.782 65.2077 335.998 68.5286 325.883 69.3996V69.5629C331.229 73.7004 334.767 76.8579 336.496 79.0355C338.226 81.1586 340.165 84.044 342.314 87.6914L360.082 117.661C362.231 121.254 361.759 123.05 358.667 123.05H349.704C347.241 123.05 345.407 121.989 344.201 119.865L327.848 90.7129C325.49 86.521 322.109 82.4108 317.706 78.3822C313.304 74.3536 307.826 72.3394 301.275 72.3394H287.595V118.559C287.595 121.553 286.285 123.05 283.664 123.05H276.431ZM287.595 58.9471H310.316C320.537 58.9471 328.399 57.5589 333.902 54.7825C339.405 51.9516 342.157 46.0448 342.157 37.0622C342.157 30.2028 339.641 25.5482 334.61 23.0984C329.578 20.5942 322.738 19.342 314.09 19.342H287.595V58.9471Z" stroke="#F8FCFE" stroke-width="6" mask="url(#path-8-outside-1_14_141)"/>
<path d="M405.348 123.05C402.728 123.05 401.417 121.553 401.417 118.559V10.4411C401.417 7.4469 402.728 5.9498 405.348 5.9498H474.14C477.023 5.9498 478.465 7.1747 478.465 9.6245V15.6673C478.465 18.1171 477.023 19.342 474.14 19.342H416.512V55.5991H469.423C472.306 55.5991 473.747 56.824 473.747 59.2738V65.3166C473.747 67.7664 472.306 68.9913 469.423 68.9913H416.512V109.658H476.499C479.382 109.658 480.823 110.883 480.823 113.333V119.376C480.823 121.825 479.382 123.05 476.499 123.05H405.348Z" stroke="#F8FCFE" stroke-width="6" mask="url(#path-8-outside-1_14_141)"/>
<path d="M514.925 123.05C512.2 123.05 511.492 121.254 512.802 117.661L551.955 10.9311C553.161 7.61022 554.89 5.9498 557.144 5.9498H568.151C570.404 5.9498 572.134 7.61022 573.34 10.9311L612.492 117.661C613.802 121.254 613.095 123.05 610.369 123.05H602.35C599.572 123.05 597.685 121.716 596.69 119.049L586.862 92.0194H538.432L528.605 119.049C527.609 121.716 525.722 123.05 522.944 123.05H514.925ZM543.385 78.6272H581.909L569.88 45.9632C568.78 42.9145 567.679 39.5393 566.578 35.8373C565.53 32.1354 564.272 26.882 562.805 20.077H562.49C561.022 26.882 559.738 32.1354 558.638 35.8373C557.589 39.5393 556.515 42.9145 555.414 45.9632L543.385 78.6272Z" stroke="#F8FCFE" stroke-width="6" mask="url(#path-8-outside-1_14_141)"/>
<path d="M650.761 123.05C648.14 123.05 646.83 121.553 646.83 118.559V10.4411C646.83 7.4469 648.14 5.9498 650.761 5.9498H657.994C660.615 5.9498 661.925 7.4469 661.925 10.4411V109.658H714.05C716.933 109.658 718.374 110.883 718.374 113.333V119.376C718.374 121.825 716.933 123.05 714.05 123.05H650.761Z" stroke="#F8FCFE" stroke-width="6" mask="url(#path-8-outside-1_14_141)"/>
<path d="M755.149 114.231C752.371 111.618 751.637 109.331 752.948 107.371L757.036 101.247C758.451 99.1238 760.731 99.2871 763.876 101.737C768.016 104.949 772.314 107.589 776.769 109.658C781.277 111.727 786.728 112.761 793.122 112.761C797.839 112.761 801.823 112.026 805.072 110.556C808.322 109.086 810.917 106.99 812.856 104.268C814.848 101.492 815.843 98.1439 815.843 94.2242C815.843 91.3934 815.424 88.7802 814.585 86.3849C813.799 83.9351 812.515 81.8936 810.733 80.2604C808.951 78.6272 807.09 77.3478 805.151 76.4224C801.954 74.898 797.158 73.1287 790.764 71.1145C784.422 69.1002 778.866 66.9226 774.096 64.5817C769.379 62.2407 765.605 59.4099 762.775 56.089C759.997 52.7682 758.137 49.3657 757.193 45.8815C756.302 42.3429 755.857 38.3144 755.857 33.7959C755.857 26.882 757.796 20.9208 761.674 15.9123C765.553 10.9038 770.296 7.583 775.905 5.9498C781.565 4.3166 787.304 3.5 793.122 3.5C799.779 3.5 805.57 4.39826 810.497 6.19478C815.424 7.9913 819.827 10.3322 823.705 13.2175C826.431 15.2318 827.06 17.355 825.592 19.587L821.583 25.5482C820.377 27.3447 818.018 26.9636 814.507 24.405C811.834 22.4451 808.558 20.6214 804.679 18.9337C800.853 17.1917 797.053 16.3206 793.28 16.3206C788.458 16.3206 784.448 16.9195 781.251 18.1171C778.054 19.2604 775.538 21.2202 773.703 23.9967C771.869 26.7731 770.952 29.9851 770.952 33.6325C770.952 35.919 771.161 38.0422 771.581 40.002C772 41.9074 773.074 43.8672 774.804 45.8815C776.534 47.8958 778.63 49.4473 781.093 50.5361C784.396 52.006 789.506 53.7481 796.424 55.7624C803.395 57.7222 809.475 60.1448 814.664 63.0301C819.486 65.6977 822.945 68.5013 825.042 71.4411C827.191 74.3264 828.842 77.4839 829.995 80.9137C831.2 84.2889 831.803 88.0997 831.803 92.3461C831.803 100.077 829.89 106.528 826.064 111.699C822.238 116.871 817.704 120.464 812.463 122.479C807.221 124.493 800.644 125.5 792.729 125.5C783.242 125.5 775.38 124.357 769.143 122.07C762.906 119.784 758.241 117.171 755.149 114.231Z" stroke="#F8FCFE" stroke-width="6" mask="url(#path-8-outside-1_14_141)"/>
<path d="M864.883 64.5C864.883 45.446 869.417 30.5295 878.484 19.7503C887.604 8.91678 900.681 3.5 917.716 3.5C927.674 3.5 935.903 5.2693 942.402 8.8079C948.901 12.2921 953.566 17.0828 956.396 23.1801C957.864 26.3376 957.628 28.5152 955.689 29.7129L949.478 33.4692C947.381 34.7213 945.521 33.687 943.896 30.3661C942.166 26.9364 939.336 23.7245 935.405 20.7303C931.474 17.7361 925.84 16.239 918.502 16.239C905.398 16.239 895.859 20.4853 889.884 28.9779C883.961 37.4161 881 49.2568 881 64.5C881 79.7432 883.961 91.6111 889.884 100.104C895.859 108.542 905.398 112.761 918.502 112.761C926.049 112.761 932.077 110.965 936.584 107.371C941.144 103.778 944.446 100.022 946.49 96.1024C948.115 92.9449 950.002 91.9922 952.151 93.2443L958.676 97.0823C960.563 98.2256 960.72 100.403 959.148 103.615C956.056 109.876 951.024 115.102 944.053 119.294C937.082 123.431 928.303 125.5 917.716 125.5C900.681 125.5 887.604 120.11 878.484 109.331C869.417 98.4978 864.883 83.554 864.883 64.5Z" stroke="#F8FCFE" stroke-width="6" mask="url(#path-8-outside-1_14_141)"/>
<path d="M1004.49 123.05C1001.87 123.05 1000.56 121.553 1000.56 118.559V10.4411C1000.56 7.4469 1001.87 5.9498 1004.49 5.9498H1011.73C1014.35 5.9498 1015.66 7.4469 1015.66 10.4411V55.4357H1070.53V10.4411C1070.53 7.4469 1071.84 5.9498 1074.46 5.9498H1081.7C1084.32 5.9498 1085.63 7.4469 1085.63 10.4411V118.559C1085.63 121.553 1084.32 123.05 1081.7 123.05H1074.46C1071.84 123.05 1070.53 121.553 1070.53 118.559V68.828H1015.66V118.559C1015.66 121.553 1014.35 123.05 1011.73 123.05H1004.49Z" stroke="#F8FCFE" stroke-width="6" mask="url(#path-8-outside-1_14_141)"/>
<path d="M1125.55 64.5C1125.55 45.446 1130.06 30.5295 1139.07 19.7503C1148.14 8.91678 1161.19 3.5 1178.22 3.5C1195.26 3.5 1208.28 8.91678 1217.3 19.7503C1226.36 30.5295 1230.9 45.446 1230.9 64.5C1230.9 83.554 1226.36 98.4978 1217.3 109.331C1208.28 120.11 1195.26 125.5 1178.22 125.5C1161.19 125.5 1148.14 120.11 1139.07 109.331C1130.06 98.4978 1125.55 83.554 1125.55 64.5ZM1141.67 64.5C1141.67 79.7432 1144.68 91.6111 1150.71 100.104C1156.73 108.542 1165.91 112.761 1178.22 112.761C1190.54 112.761 1199.71 108.542 1205.74 100.104C1211.77 91.6111 1214.78 79.7432 1214.78 64.5C1214.78 49.2568 1211.77 37.4161 1205.74 28.9779C1199.71 20.4853 1190.54 16.239 1178.22 16.239C1165.91 16.239 1156.73 20.4853 1150.71 28.9779C1144.68 37.4161 1141.67 49.2568 1141.67 64.5Z" stroke="#F8FCFE" stroke-width="6" mask="url(#path-8-outside-1_14_141)"/>
<path d="M1264.69 64.5C1264.69 45.446 1269.19 30.5295 1278.21 19.7503C1287.28 8.91678 1300.33 3.5 1317.36 3.5C1334.4 3.5 1347.42 8.91678 1356.44 19.7503C1365.5 30.5295 1370.04 45.446 1370.04 64.5C1370.04 83.554 1365.5 98.4978 1356.44 109.331C1347.42 120.11 1334.4 125.5 1317.36 125.5C1300.33 125.5 1287.28 120.11 1278.21 109.331C1269.19 98.4978 1264.69 83.554 1264.69 64.5ZM1280.8 64.5C1280.8 79.7432 1283.82 91.6111 1289.84 100.104C1295.87 108.542 1305.04 112.761 1317.36 112.761C1329.68 112.761 1338.85 108.542 1344.88 100.104C1350.91 91.6111 1353.92 79.7432 1353.92 64.5C1353.92 49.2568 1350.91 37.4161 1344.88 28.9779C1338.85 20.4853 1329.68 16.239 1317.36 16.239C1305.04 16.239 1295.87 20.4853 1289.84 28.9779C1283.82 37.4161 1280.8 49.2568 1280.8 64.5Z" stroke="#F8FCFE" stroke-width="6" mask="url(#path-8-outside-1_14_141)"/>
<path d="M1413.89 123.05C1411.27 123.05 1409.96 121.553 1409.96 118.559V10.4411C1409.96 7.4469 1411.27 5.9498 1413.89 5.9498H1421.12C1423.74 5.9498 1425.05 7.4469 1425.05 10.4411V109.658H1477.18C1480.06 109.658 1481.5 110.883 1481.5 113.333V119.376C1481.5 121.825 1480.06 123.05 1477.18 123.05H1413.89Z" stroke="#F8FCFE" stroke-width="6" mask="url(#path-8-outside-1_14_141)"/>
<g style="mix-blend-mode:plus-lighter">
<path d="M295.813 17.875H205.344C202.531 17.875 200.656 16 200.656 13.1875C200.656 10.375 202.531 8.5 205.344 8.5H295.813C298.625 8.5 300.5 10.375 300.5 13.1875C300.5 16 298.625 17.875 295.813 17.875Z" fill="#2C2932"/>
<path d="M237.688 34.75H295.813C298.625 34.75 300.5 36.625 300.5 39.4375C300.5 42.25 298.625 44.125 295.813 44.125H237.688C234.875 44.125 233 42.25 233 39.4375C233 36.625 234.875 34.75 237.688 34.75Z" fill="#2C2932"/>
<path d="M210.5 61H295.813C298.625 61 300.5 62.875 300.5 65.6875C300.5 68.5 298.625 70.375 295.813 70.375H210.5C207.687 70.375 205.812 68.5 205.812 65.6875C205.812 62.875 207.687 61 210.5 61Z" fill="#2C2932"/>
<path d="M224.094 87.2501H295.813C298.625 87.2501 300.5 89.1251 300.5 91.9376C300.5 94.7501 298.625 96.6251 295.813 96.6251H224.094C221.281 96.6251 219.406 94.7501 219.406 91.9376C219.406 89.1251 221.281 87.2501 224.094 87.2501Z" fill="#2C2932"/>
<path d="M237.688 113.5H295.813C298.625 113.5 300.5 115.375 300.5 118.188C300.5 121 298.625 122.875 295.813 122.875H237.688C234.875 122.875 233 121 233 118.188C233 115.375 234.875 113.5 237.688 113.5Z" fill="#2C2932"/>
</g>
</svg>
